<svg xmlns="http://www.w3.org/2000/svg" width="1075.272" height="838.558" viewBox="0 0 1075.272 838.558">
  <g id="_3" data-name="3" transform="translate(-247.995 -152.705)">
    <g id="Grupo_581" data-name="Grupo 581" transform="translate(247.995 152.705)">
      <g id="Grupo_399" data-name="Grupo 399" transform="translate(16.782)">
        <path id="Caminho_309" data-name="Caminho 309" d="M538.163,989.671S392.818,802.089,544.39,638.779c168.463-181.5,9.3-384.574,177.147-456.866C958.229,79.968,1000.655,281.6,1265.716,231.62,1487.055,189.881,1482.354,516,1416.941,632.388c-54.238,96.5,154.8,144.326,47.8,356.846Z" transform="translate(-475.372 -152.705)" fill="#ebf3fa"/>
      </g>
      <g id="Grupo_402" data-name="Grupo 402" transform="translate(625.952 186.938)">
        <g id="Grupo_400" data-name="Grupo 400" transform="translate(3.485 21.895)" opacity="0.3">
          <path id="Caminho_310" data-name="Caminho 310" d="M1707.17,699.171s22.958-111.7,110.913-126.465c0,0,17.119-2.606,23.391,16.145s-27.887,19.88-48.782,28.1S1723.5,658.864,1707.17,699.171Z" transform="translate(-1707.17 -572.582)" fill="#aec3ff"/>
        </g>
        <g id="Grupo_401" data-name="Grupo 401" opacity="0.3">
          <path id="Caminho_311" data-name="Caminho 311" d="M1701.037,656.343s-11.842-91.635,51.652-126.117c0,0,12.429-6.51,22.173,6.207s-16.13,22.58-29.971,34.383S1702.932,621.155,1701.037,656.343Z" transform="translate(-1700.163 -528.56)" fill="#aec3ff"/>
        </g>
      </g>
      <g id="Grupo_403" data-name="Grupo 403" transform="translate(265.963 261.181)">
        <path id="Caminho_312" data-name="Caminho 312" d="M980.558,697.855c10.773-30.648,62.817-16.99,62.817-16.99s31.8,57.361,42.127,59.43-17.612-54.352-17.612-54.352c20.337-.468,69.979,28.076,69.979,28.076s-7.958,63.6,2.562,63.066,4.173-56.675,4.173-56.675c19.114,7.3,35.676,31.444,35.676,31.444,20.069,38.81-30.807,62.574-30.807,62.574s-2.283,22.1,9.53,48.513h0a75.714,75.714,0,0,1,5.292,13.121l-5.327-.393q-.492-2.193-1.139-4.243c0-.01,0-.02-.01-.025s-.015-.04-.02-.06c-.3-.851-.741-2.059-1.293-3.536v0a0,0,0,0,0-.005-.005c-1.393-3.307-2.318-5.74-2.89-7.49,0-.005-.005-.01-.005-.015-4.143-10.36-10.206-23.913-14.692-26.992a10.245,10.245,0,0,0,1.318-2.362q-.634,1.126-1.318,2.362c-10.559,18.87-56.4,18.771-81.424,11.688s-13.419-13.434,1.114-24.058,42.972-5.446,51.781-9.385-3.238-9.41-20.273-9.35-26.748,16.368-54.3,16.96S991.2,766.745,991.2,766.745c18.462,7.252,53.1-.676,54.884-7.092s-48.429-9.46-56.1-11.992S969.786,728.5,980.558,697.855Z" transform="translate(-976.371 -677.832)" fill="#cde0fb"/>
      </g>
      <g id="Grupo_404" data-name="Grupo 404" transform="translate(186.244 626.967)">
        <path id="Caminho_313" data-name="Caminho 313" d="M820.229,1549.209c-18.87-32.911,32.926-68.492,32.926-68.492s74.973,15.667,84.687,8.117-61.484-25.908-61.484-25.908c15.11-18.338,78.226-40.431,78.226-40.431s50.149,55.576,57.7,45.867-46.917-46.942-46.917-46.942c21.039-11.32,55.024-7.535,55.024-7.535,49.622,11.882,31.8,74.988,31.8,74.988s17.8,18.885,50.154,28.6h0a87.968,87.968,0,0,1,15.637,5.337l-4.412,4.412q-2.313-1.239-4.62-2.228c-.01-.01-.015-.01-.03-.01l-.065-.03c-.985-.378-2.387-.915-4.113-1.557h-.015c-3.984-1.293-6.844-2.333-8.828-3.163-.005,0-.01,0-.02-.01-12.32-4.247-28.927-9.226-35.074-7.61a12.146,12.146,0,0,0-1.079-2.969q.515,1.417,1.079,2.969c8.624,23.734-26.45,64.18-51.806,80.9s-22.118,1.611-20.412-19.348,27.982-42.147,31.22-52.93-10.788-4.317-23.739,10.783-5.943,36.139-26.45,60.947-80.369-.562-80.369-.562c20.5-10.783,39.929-47.459,35.616-53.93s-45.32,35.587-53.412,40.441C863.37,1583.746,839.1,1582.12,820.229,1549.209Z" transform="translate(-816.091 -1413.278)" fill="#afcdfb"/>
      </g>
      <g id="Grupo_405" data-name="Grupo 405" transform="translate(681.009 289.68)" opacity="0.5">
        <path id="Caminho_314" data-name="Caminho 314" d="M2042.832,769.539c-3.661-34.109-60.465-32.657-60.465-32.657s-46.563,51.269-57.68,50.9,31.25-51.607,31.25-51.607c-20.795-5.4-78.728,11.937-78.728,11.937s-7.2,67.3-17.885,64.21,9.42-59.266,9.42-59.266c-21.412,2.885-44.276,23.695-44.276,23.695C1794.452,811.791,1841,848.526,1841,848.526s-3,23.272-21.526,47.563h0a79.652,79.652,0,0,0-8.614,12.21l5.57.885q1.037-2.134,2.2-4.083a.027.027,0,0,1,.015-.025.541.541,0,0,1,.035-.055c.517-.8,1.263-1.94,2.183-3.322a0,0,0,0,1,0-.005,0,0,0,0,1,.005-.005c2.233-3.064,3.775-5.342,4.785-7,0-.005,0-.01.01-.015,6.764-9.649,16.279-22.113,21.63-24.192a10.974,10.974,0,0,1-.786-2.745c.249.875.512,1.786.786,2.745,6.292,21.954,53.437,32.936,80.872,31.712s17.045-10.564,4.67-25-42.858-16-50.955-22.168,5.605-8.888,23.1-4.71,23.535,23.3,51.716,30.568,58.53-43.082,58.53-43.082c-20.73,2.994-54.422-13.538-54.705-20.566s52.069,1.989,60.569,1.243S2046.492,803.649,2042.832,769.539Z" transform="translate(-1810.86 -735.133)" fill="#afcdfb"/>
      </g>
      <g id="Grupo_406" data-name="Grupo 406" transform="translate(597.671 484.862)" opacity="0.2">
        <path id="Caminho_315" data-name="Caminho 315" d="M1988.448,1381.691c37.631-30.882-8.286-97.166-8.286-97.166s-97.076-15.369-105.282-28.847,85.562-3.069,85.562-3.069c-9.768-28.877-75.416-84.144-75.416-84.144s-85.477,43.818-90.118,28.728,77.669-34.935,77.669-34.935c-20.083-23.167-62.569-34.109-62.569-34.109-64.941-8.356-72.317,75.465-72.317,75.465s-29.951,14.548-73.2,11.459h0a113.438,113.438,0,0,0-21.193-.726l3.283,7.3c2.228-.283,4.417-.477,6.56-.567a.056.056,0,0,1,.04,0,.647.647,0,0,0,.094,0c1.353-.005,3.282-.01,5.64,0h.02c5.372.269,9.276.323,12.031.229h.025c16.717.517,38.9,2.114,45.539,6.849a15.446,15.446,0,0,1,2.646-3.069c-.845.98-1.721,2-2.646,3.069-21.158,24.545,2.487,89.044,25.291,120.646s25.8,12.011,33.3-13.906-14.364-63.3-13.334-77.724,14.906-.264,23.565,23.749-9.336,46.061,3.959,85.159,96.668,35.945,96.668,35.945c-19.681-22.277-26.276-75.122-18.154-80.922s38.153,63.34,45.648,72.849S1950.817,1412.572,1988.448,1381.691Z" transform="translate(-1643.3 -1127.563)" fill="#afcdfb"/>
      </g>
      <g id="Grupo_435" data-name="Grupo 435" transform="translate(138.017 412.267)">
        <g id="man_2_">
          <g id="Grupo_407" data-name="Grupo 407" transform="translate(206.474 84.049)">
            <path id="Caminho_316" data-name="Caminho 316" d="M1154.14,1161.573c-1.786,4.8-4.884,10.38-8.132,11.763a12.6,12.6,0,0,0-5.222,3.79l-2.974-1.726-3.551-2.064s.085-.393.259-1.035.438-1.532.8-2.517a3.447,3.447,0,0,0,.423-3.163,7.346,7.346,0,0,1,.607-6.133c1.139-1.656,2.238-5.735,2.925-5.615,1.661.283-.816,5.894-.1,6.933a1.231,1.231,0,0,0,1.6.547l.03-.015c4.66-2.049,10.315-13.1,12.817-11.609C1154.538,1151.287,1154.9,1159.529,1154.14,1161.573Z" transform="translate(-1134.26 -1150.592)" fill="#ffb27d"/>
          </g>
          <g id="Grupo_410" data-name="Grupo 410" transform="translate(209.84 78.77)">
            <g id="Grupo_408" data-name="Grupo 408">
              <path id="Caminho_317" data-name="Caminho 317" d="M1141.417,1162.928l5.839,4.1a.922.922,0,0,0,1.278-.224l14.961-21.282a.923.923,0,0,0-.224-1.278l-5.839-4.1a.923.923,0,0,0-1.278.224l-14.961,21.282A.922.922,0,0,0,1141.417,1162.928Z" transform="translate(-1141.028 -1139.978)" fill="#2b478b"/>
            </g>
            <g id="Grupo_409" data-name="Grupo 409" transform="translate(5.436 3.8)">
              <path id="Caminho_318" data-name="Caminho 318" d="M1152.252,1170.523l3.422,2.407a.7.7,0,0,0,.97-.169l15.209-21.641a.7.7,0,0,0-.169-.97l-3.422-2.407a.7.7,0,0,0-.97.169l-15.209,21.645A.694.694,0,0,0,1152.252,1170.523Z" transform="translate(-1151.958 -1147.618)" fill="#233862"/>
            </g>
          </g>
          <g id="Grupo_411" data-name="Grupo 411" transform="translate(110.288 71.175)">
            <path id="Caminho_319" data-name="Caminho 319" d="M957.039,1124.71s29.713,51.826,40.491,61.36l39.526-29.469a14.435,14.435,0,0,1,8.246,7.515s-24,48.9-47.633,50.975-56.8-58.615-56.8-58.615Z" transform="translate(-940.87 -1124.71)" fill="#94b0ed"/>
          </g>
          <g id="Grupo_422" data-name="Grupo 422" transform="translate(28.801 190.936)">
            <g id="Grupo_412" data-name="Grupo 412" transform="translate(0 197.882)">
              <path id="Caminho_320" data-name="Caminho 320" d="M807.45,1798.206H790.281c-2.164-1.174-4.088-3.859-4.7-7.868-.841-5.531-7.038-8.545-8.381-13.071s5.531-10.887,5.531-10.887l1.149-1.482,1.194-1.537,11.395,2.681s.284,2.716.453,6.172a78.966,78.966,0,0,1,.05,7.9c-.333,6.033,1.686,12.529,7.048,13.7C807.987,1794.684,807.813,1797.037,807.45,1798.206Z" transform="translate(-777.032 -1763.36)" fill="#233862"/>
            </g>
            <g id="Grupo_413" data-name="Grupo 413" transform="translate(89.517 212.652)">
              <path id="Caminho_321" data-name="Caminho 321" d="M997.547,1813.132H958.285c-1.89-2.3-1.194-10.808-.905-13.583.06-.557.1-.885.1-.885s13.409-10.723,15.249-2.512c.055.259.124.507.2.756,2.318,7.679,12.728,11.171,18.736,12.141C995.568,1809.685,997.015,1811.714,997.547,1813.132Z" transform="translate(-957.014 -1793.056)" fill="#233862"/>
            </g>
            <g id="Grupo_416" data-name="Grupo 416" transform="translate(65.696 10.052)">
              <g id="Grupo_415" data-name="Grupo 415">
                <g id="Grupo_414" data-name="Grupo 414">
                  <path id="Caminho_322" data-name="Caminho 322" d="M965.994,1389.231s-2.034,25.4-4.427,55.929c-3.253,41.475-7.162,92.421-7.55,102.07-.667,16.756-3.352,43.564-3.352,43.564s-6.361,6.366-19.1,3.685c0,0-11.35-38.267-14.593-78.758-.05-.662-.1-1.333-.149-2-3.014-41.217-7.7-128.012-7.7-128.012Z" transform="translate(-909.12 -1385.71)" fill="#00a4ff"/>
                </g>
              </g>
            </g>
            <g id="Grupo_419" data-name="Grupo 419" transform="translate(65.696 10.052)">
              <g id="Grupo_418" data-name="Grupo 418">
                <g id="Grupo_417" data-name="Grupo 417">
                  <path id="Caminho_323" data-name="Caminho 323" d="M965.994,1389.231s-2.034,25.4-4.427,55.929l-44.594,70.562c-.05-.662-.1-1.333-.149-2-3.014-41.217-7.7-128.012-7.7-128.012Z" transform="translate(-909.12 -1385.71)" fill="#3582c6"/>
                </g>
              </g>
            </g>
            <g id="Grupo_421" data-name="Grupo 421" transform="translate(5.704)">
              <g id="Grupo_420" data-name="Grupo 420">
                <path id="Caminho_324" data-name="Caminho 324" d="M896.07,1382.092s-36.7,91.988-60.823,135.214S803.58,1572.6,803.58,1572.6s-13.822-5.531-15.08-9.3c0,0,9.226-83.453,25.386-103.8,9.132-11.494,19.855-45.991,20.357-58.058s3.268-35.94,3.268-35.94Z" transform="translate(-788.5 -1365.5)" fill="#00a4ff"/>
              </g>
            </g>
          </g>
          <g id="Grupo_423" data-name="Grupo 423" transform="translate(93.79 35.191)">
            <path id="Caminho_325" data-name="Caminho 325" d="M946.848,1090.6c-14.339,4.526-39.148-7.684-39.148-7.684s13.22-9.923,12.529-30.553l11.086,8.933,7.53,6.068a89.764,89.764,0,0,1-.855,9.848c-.219,1.651,1.641,5.287,3.258,7.331C945.594,1090.055,946.848,1090.6,946.848,1090.6Z" transform="translate(-907.7 -1052.36)" fill="#ffb27d"/>
          </g>
          <g id="Grupo_424" data-name="Grupo 424" transform="translate(106.269 43.906)">
            <path id="Caminho_326" data-name="Caminho 326" d="M951.456,1076.168a89.723,89.723,0,0,1-.855,9.848c-8.346-1.432-17.811-14.921-17.811-14.921a26.519,26.519,0,0,1,11.136-.995Z" transform="translate(-932.79 -1069.883)" fill="#ed975d"/>
          </g>
          <g id="Grupo_425" data-name="Grupo 425" transform="translate(100.992 10.671)">
            <path id="Caminho_327" data-name="Caminho 327" d="M950.51,1042.242s-23.685,3.934-25.908-10.853-6.779-24.237,8.251-27.375,18.82,2.064,20.765,6.819S956.612,1040.84,950.51,1042.242Z" transform="translate(-922.18 -1003.06)" fill="#ffb27d"/>
          </g>
          <g id="Grupo_426" data-name="Grupo 426" transform="translate(80.714 60.036)">
            <path id="Caminho_328" data-name="Caminho 328" d="M953.646,1248.905a2.326,2.326,0,0,1-1.507.572c-5.386-.075-21.088,2.919-34.373,1.552-11.2-1.074-21.113-4.392-31.762-9.167-1.413-.632-4.665-2.373-4.6-3.949.05-1.731.219-4.238.438-7.4a394.924,394.924,0,0,0,.786-51.7c-.229-4.059-.353-8.087-.368-12.051-.109-29.553,5.75-55.546,17.527-64.344,1-.721,7.182,2.3,12.852,5.1a23.5,23.5,0,0,0,15.438,1.87l4.954,4.377c6.033,5.6,12.638,13.215,15.508,24.774,2.442,9.838,3.879,27.574,4.665,45.957.358,8.331.647,16.731.721,24.7v.283c.07.791.07,1.656.07,2.442C954.293,1232.388,954,1248.612,953.646,1248.905Z" transform="translate(-881.408 -1102.313)" fill="#aec3ff"/>
          </g>
          <g id="Grupo_427" data-name="Grupo 427" transform="translate(81.152 103.957)">
            <path id="Caminho_329" data-name="Caminho 329" d="M882.29,1274.9a394.923,394.923,0,0,0,.786-51.7c-.229-4.059-.353-8.087-.368-12.051,4.9-11.9,8.913-20.531,8.913-20.531h12.365C903.99,1190.625,913.052,1252.537,882.29,1274.9Z" transform="translate(-882.29 -1190.62)" fill="#94b0ed"/>
          </g>
          <g id="Grupo_430" data-name="Grupo 430" transform="translate(0 203.617)">
            <g id="Grupo_428" data-name="Grupo 428" transform="translate(6.993 6.858)">
              <path id="Caminho_330" data-name="Caminho 330" d="M744.01,1452.719l52.731,7.515a12.634,12.634,0,0,0,14.255-10.7l3.258-22.854a12.634,12.634,0,0,0-10.7-14.255l-52.731-7.515a12.634,12.634,0,0,0-14.255,10.7l-3.258,22.854A12.64,12.64,0,0,0,744.01,1452.719Z" transform="translate(-733.185 -1404.786)" fill="#233862"/>
            </g>
            <g id="Grupo_429" data-name="Grupo 429">
              <path id="Caminho_331" data-name="Caminho 331" d="M799.468,1412.305h0a12.7,12.7,0,0,0-8.734-7.635h-.005c-.005,0-.005,0-.01-.005a12.019,12.019,0,0,0-1.219-.234L779,1402.94l.7-4.934a4.176,4.176,0,0,0-3.546-4.72l-2.74-.393-11.027-1.572-1.99-.284a4.177,4.177,0,0,0-4.72,3.541l-.7,4.934-18.124-2.581a12.69,12.69,0,0,0-14.309,10.738l-3.293,23.118A12.69,12.69,0,0,0,729.99,1445.1l52.636,7.505a12.146,12.146,0,0,0,2.745.084h.01a12.372,12.372,0,0,0,4.108-1.039,12.664,12.664,0,0,0,7.446-9.793l3.293-23.113A12.41,12.41,0,0,0,799.468,1412.305Zm-41.192-17.348a1.562,1.562,0,0,1,1.293-1.318,1.471,1.471,0,0,1,.467-.005l2.343.333,8.679,1.238,4.73.677a1.561,1.561,0,0,1,1.323,1.761l-.7,4.934-18.835-2.686Z" transform="translate(-719.126 -1390.996)" fill="#2b478b"/>
            </g>
          </g>
          <g id="Grupo_431" data-name="Grupo 431" transform="translate(41.904 186.754)">
            <path id="Caminho_332" data-name="Caminho 332" d="M819.389,1360.7s-2.77,3.691-2.88,5.163c-.746,9.992,3.82,11.37-8,16.92,0,0-5.043,1.925-5.133-1.994s3.5-3.979,2.845-9.465c-.756-6.327-.681-6.386,3.472-9.689l2.75-4.546Z" transform="translate(-803.377 -1357.09)" fill="#ffb27d"/>
          </g>
          <g id="Grupo_432" data-name="Grupo 432" transform="translate(44.755 62.114)">
            <path id="Caminho_333" data-name="Caminho 333" d="M815.228,1237.571a40.418,40.418,0,0,0,9.281.517s13.22-40.834,14.921-44.564,39.262-47.877,39.262-47.877l-15.647-39.158s-40.625,67.861-44.753,77.4c-6.819,15.757-9.181,51.085-9.181,51.085A17,17,0,0,0,815.228,1237.571Z" transform="translate(-809.11 -1106.49)" fill="#aec3ff"/>
          </g>
          <g id="Grupo_433" data-name="Grupo 433" transform="translate(97.629)">
            <path id="Caminho_334" data-name="Caminho 334" d="M921.183,1019.184s2.432-.408,2.039-3.755-.388-7.724,2.333-6.908,2.855,2.994,3.974,1.721,1.139-6.635,9.236-7.008,11.39,2.447,15.155.791,3.964-7.356,3.964-7.356a6.46,6.46,0,0,1-2.691,2.681s6.282-8.595-.99-14.488-14.692-2.034-18.9-1.781c-9.276.562-15.269,1.119-18.3,7.212S915.23,1013.315,921.183,1019.184Z" transform="translate(-915.417 -981.605)" fill="#2b478b"/>
          </g>
          <g id="Grupo_434" data-name="Grupo 434" transform="translate(53.31 194.756)">
            <path id="Caminho_335" data-name="Caminho 335" d="M826.549,1373.18s2.666,2.78,2.835,3.934c.542,3.71,1.781,5.317,1.159,5.72-1.293.841-3-1.91-3.815-4.377A11.216,11.216,0,0,1,826.549,1373.18Z" transform="translate(-826.31 -1373.18)" fill="#ffb27d"/>
          </g>
        </g>
      </g>
      <g id="Grupo_439" data-name="Grupo 439" transform="translate(393.024 277.215)">
        <g id="Grupo_437" data-name="Grupo 437" transform="translate(3.676 3.676)">
          <g id="Grupo_436" data-name="Grupo 436">
            <path id="Caminho_336" data-name="Caminho 336" d="M1525.833,1268.264H1268.51a29.282,29.282,0,0,1-29.28-29.28V746.74a29.282,29.282,0,0,1,29.28-29.28h257.318a29.282,29.282,0,0,1,29.28,29.28v492.244A29.278,29.278,0,0,1,1525.833,1268.264Z" transform="translate(-1239.23 -717.46)" fill="#fff"/>
          </g>
        </g>
        <g id="Grupo_438" data-name="Grupo 438">
          <path id="Caminho_337" data-name="Caminho 337" d="M1522.118,1268.225H1264.8a32.993,32.993,0,0,1-32.956-32.956V743.026A32.993,32.993,0,0,1,1264.8,710.07h257.323a32.989,32.989,0,0,1,32.95,32.956v492.244A32.989,32.989,0,0,1,1522.118,1268.225ZM1264.8,717.421a25.634,25.634,0,0,0-25.6,25.6v492.244a25.631,25.631,0,0,0,25.6,25.6h257.323a25.634,25.634,0,0,0,25.6-25.6V743.026a25.634,25.634,0,0,0-25.6-25.6H1264.8Z" transform="translate(-1231.84 -710.07)" fill="#2b478b"/>
        </g>
      </g>
      <g id="girl_2_3_" transform="translate(670.596 613.781)">
        <g id="Grupo_440" data-name="Grupo 440" transform="translate(0.857)">
          <path id="Caminho_338" data-name="Caminho 338" d="M1830.621,1387.768a27.254,27.254,0,0,1,27.161,7.754c16.721,18.164,4.392,32.165,12.762,44.877,5.058,7.679,9.306,21.133-6.361,29.091-7.242,3.681-28.822,22.909-33.239,23.361-44.778,4.6-45.584-40.829-30.489-53.994C1821.664,1420.361,1802.281,1396.035,1830.621,1387.768Z" transform="translate(-1791.645 -1386.767)" fill="#233862"/>
        </g>
        <g id="Grupo_441" data-name="Grupo 441" transform="translate(54.184 71.229)">
          <path id="Caminho_339" data-name="Caminho 339" d="M1907.914,1529.98s40.864,19.8,48.518,19.462,55.5-17.184,55.5-17.184l-1.2,8.112s-36.4,20.934-49.125,22.123c-12.529,1.169-55.372-11.245-59.5-13.867S1895.893,1532.636,1907.914,1529.98Z" transform="translate(-1898.865 -1529.98)" fill="#ed985f"/>
        </g>
        <g id="Grupo_442" data-name="Grupo 442" transform="translate(20.182 45.675)">
          <path id="Caminho_340" data-name="Caminho 340" d="M1878.048,1522.831a40.48,40.48,0,0,1-14.175,6.033c-21.854,5.048-30.23-13.419-33.373-26.1a18.77,18.77,0,0,1,7.406-2.273c1.582-.184,3.243-.308,4.616-.378,2.452-1.88,6.113-9.569,6.918-21.516l1.03.274,17.224,4.715s-.791,5.476-1.174,10.649c-.3,4.049-.348,7.918.423,8.868,1.343.293,2.148.482,2.148.482s0,0,.01.015A111.5,111.5,0,0,1,1878.048,1522.831Z" transform="translate(-1830.5 -1478.6)" fill="#ffb27d"/>
        </g>
        <g id="Grupo_443" data-name="Grupo 443" transform="translate(40.146 45.948)">
          <path id="Caminho_341" data-name="Caminho 341" d="M1887.864,1483.865s-.791,5.471-1.174,10.649c-9.758-.975-14.284-10.266-16.05-15.364Z" transform="translate(-1870.64 -1479.15)" fill="#ed985f"/>
        </g>
        <g id="Grupo_444" data-name="Grupo 444" transform="translate(38.109 16.038)">
          <path id="Caminho_342" data-name="Caminho 342" d="M1888.72,1458.776s-23.162-1.278-22.143-15.687-1.283-24.281,13.543-24.073,17.313,5.909,18.144,10.8S1894.773,1458.741,1888.72,1458.776Z" transform="translate(-1866.544 -1419.013)" fill="#ffb27d"/>
        </g>
        <g id="Grupo_445" data-name="Grupo 445" transform="translate(30.87 13.068)">
          <path id="Caminho_343" data-name="Caminho 343" d="M1890.834,1418.755c-3.263-4.591-6.033-3.835-7.645-2.641-12.146-7.858-21.029,1.835-21.029,1.835a27.6,27.6,0,0,1-10.171,15.617s4.1,3.283,13.926,1.1c12.568-2.785,16.885-13.687,17.472-15.359,1.323,1.368,3.029,2.238,4.337,5.212a22.828,22.828,0,0,1,2.561,11.37S1895.733,1425.639,1890.834,1418.755Z" transform="translate(-1851.99 -1413.041)" fill="#233862"/>
        </g>
        <g id="Grupo_446" data-name="Grupo 446" transform="translate(0.777 64.76)">
          <path id="Caminho_344" data-name="Caminho 344" d="M1804.289,1589.2c-2.094-10.693-8.913-53.407-2.094-67.154,2.447-4.939,12.061-5.381,22.605-4.949,3.283,2.119,15.781,10.121,20.919,9.122.055-.01.154-.035.288-.07,2.417-.607,3.332-2.3,1.313-3.77a106.688,106.688,0,0,1,11.116,1.547c3.666.691,13.722,6.864,13.722,6.864s-4.561,7.1-11.9,10.2c1.248,11.161-.607,16.085-12.185,41.858-9.783,21.79,1.318,41.406,1.318,41.406s-57.59,46.3-57.908,22.725C1791.249,1629.242,1806.965,1602.872,1804.289,1589.2Z" transform="translate(-1791.484 -1516.974)" fill="#00a4ff"/>
        </g>
        <g id="Grupo_447" data-name="Grupo 447" transform="translate(26.222 95.723)">
          <path id="Caminho_345" data-name="Caminho 345" d="M1877.965,1705.9a10.707,10.707,0,0,0,7.7-4.69c.279-.418.577-.865.89-1.343,6.555-9.922,9.107-40.312,23.849-72.69,3.591-7.883,16.483-9.3,20-18.209,0,0,8.654-28.882-16.562-29.733s-67.523,80.355-68.189,88.874C1845.01,1676.364,1828.989,1711.423,1877.965,1705.9Z" transform="translate(-1842.644 -1579.227)" fill="#94b0ed"/>
        </g>
        <g id="Grupo_448" data-name="Grupo 448" transform="translate(125.486 203.121)">
          <path id="Caminho_346" data-name="Caminho 346" d="M2078.49,1814.269H2042.6s-1.343-5.874,1.015-9.873c2.084-3.536,1.288-5.556-.259-8.48a13.682,13.682,0,0,0,6.043,1.169,12.462,12.462,0,0,0,5.337-1.925c1.547,1.805,8.157,9.5,10.226,11.027C2067.314,1807.912,2077.769,1807.3,2078.49,1814.269Z" transform="translate(-2042.224 -1795.16)" fill="#0d2644"/>
        </g>
        <g id="Grupo_449" data-name="Grupo 449" transform="translate(83.715 94.588)">
          <path id="Caminho_347" data-name="Caminho 347" d="M1989.33,1586.437c2.159,16.2,10.6,67.328,25.485,92.276,4.8,8.042-12.091,12.549-12.18,12.529-2.263-.592-6.038-4.2-7.779-5.769-12.086-10.892-36.616-41.729-36.616-66.453,0-12.056-.209-35.079,8.555-40.933C1972.191,1574.48,1988.474,1580.006,1989.33,1586.437Z" transform="translate(-1958.239 -1576.945)" fill="#94b0ed"/>
        </g>
        <g id="Grupo_451" data-name="Grupo 451" transform="translate(14.994 82.723)">
          <g id="Grupo_450" data-name="Grupo 450">
            <path id="Caminho_348" data-name="Caminho 348" d="M1820.07,1560.247s7.281,14.817,41.276,25.281,14.548-15.831,14.548-15.831l-47.523-16.607Z" transform="translate(-1820.07 -1553.09)" fill="#3b64c5"/>
          </g>
        </g>
        <g id="Grupo_452" data-name="Grupo 452" transform="translate(0 93.883)">
          <path id="Caminho_349" data-name="Caminho 349" d="M1833.943,1704.078a26.372,26.372,0,0,0,2.974-6.779c1.93-6.769,2.616-11.7,6.322-22.242,3.894-11.071,8.51-24.689,14.279-38.859,1.781-4.372,3.671-8.8,5.685-13.22,3.591-7.883,13.474-6.794,16.985-15.7,0,0,13.717-30.886-11.5-31.742s-73.123,82.633-75.873,90.715C1789.8,1675.1,1778.969,1712.558,1833.943,1704.078Z" transform="translate(-1789.922 -1575.527)" fill="#aec3ff"/>
        </g>
        <g id="Grupo_453" data-name="Grupo 453" transform="translate(99.146 203.121)">
          <path id="Caminho_350" data-name="Caminho 350" d="M2025.53,1814.269h-35.885s-1.343-5.874,1.015-9.873c2.084-3.536,1.288-5.556-.259-8.48a13.683,13.683,0,0,0,6.043,1.169,12.462,12.462,0,0,0,5.337-1.925c1.547,1.805,8.157,9.5,10.226,11.027C2014.349,1807.912,2024.809,1807.3,2025.53,1814.269Z" transform="translate(-1989.264 -1795.16)" fill="#163560"/>
        </g>
        <g id="Grupo_454" data-name="Grupo 454" transform="translate(50.064 130.645)" opacity="0.5">
          <path id="Caminho_351" data-name="Caminho 351" d="M1893.833,1712.213c3.894-11.071,8.51-24.689,14.279-38.859-1.507-10.733-4.76-20.128-10.226-23.913C1897.886,1649.44,1884.626,1690.523,1893.833,1712.213Z" transform="translate(-1890.58 -1649.44)" fill="#94b0ed"/>
        </g>
        <g id="Grupo_455" data-name="Grupo 455" transform="translate(57.37 95.232)">
          <path id="Caminho_352" data-name="Caminho 352" d="M1941.757,1585.944c2.159,16.2,5.2,68.478,20.089,93.425,4.8,8.042-12.091,12.548-12.18,12.529-2.263-.592-6.038-4.2-7.779-5.77-12.086-10.892-36.616-41.729-36.616-66.453,0-12.056,14.15-34.114,22.914-39.963A8.809,8.809,0,0,1,1941.757,1585.944Z" transform="translate(-1905.27 -1578.24)" fill="#aec3ff"/>
        </g>
        <g id="Grupo_462" data-name="Grupo 462" transform="translate(119.016 48.715)">
          <g id="Grupo_456" data-name="Grupo 456">
            <path id="Caminho_353" data-name="Caminho 353" d="M2081.739,1488.631l-36.75-3.9a2.37,2.37,0,0,0-2.467,1.517l-13.15,34.552a2.371,2.371,0,0,0,2.124,3.213l36.467,1.472a2.376,2.376,0,0,0,2.283-1.452l13.434-32.12A2.38,2.38,0,0,0,2081.739,1488.631Z" transform="translate(-2029.214 -1484.713)" fill="#3582c6"/>
          </g>
          <g id="Grupo_459" data-name="Grupo 459" transform="translate(3.188 0.338)">
            <g id="Grupo_458" data-name="Grupo 458">
              <g id="Grupo_457" data-name="Grupo 457">
                <path id="Caminho_354" data-name="Caminho 354" d="M2088.149,1489.311l-36.75-3.9a2.37,2.37,0,0,0-2.467,1.517l-13.15,34.552a2.371,2.371,0,0,0,2.124,3.213l36.467,1.472a2.373,2.373,0,0,0,2.283-1.457l13.434-32.12A2.369,2.369,0,0,0,2088.149,1489.311Z" transform="translate(-2035.624 -1485.393)" fill="#00a4ff"/>
              </g>
            </g>
          </g>
          <g id="Grupo_460" data-name="Grupo 460" transform="translate(30.736 18.152)">
            <path id="Caminho_355" data-name="Caminho 355" d="M2095.622,1523.443a1.513,1.513,0,0,0-1.423-2.233,3.528,3.528,0,0,0-3.044,2.233,1.513,1.513,0,0,0,1.423,2.233A3.528,3.528,0,0,0,2095.622,1523.443Z" transform="translate(-2091.012 -1521.21)" fill="#ebf3fa"/>
          </g>
          <g id="Grupo_461" data-name="Grupo 461" transform="translate(52.351 6.42)">
            <path id="Caminho_356" data-name="Caminho 356" d="M2136.733,1498.719a.743.743,0,0,0-.7-1.1,1.734,1.734,0,0,0-1.5,1.1.745.745,0,0,0,.7,1.1A1.74,1.74,0,0,0,2136.733,1498.719Z" transform="translate(-2134.47 -1497.62)" fill="#ebf3fa"/>
          </g>
        </g>
        <g id="Grupo_463" data-name="Grupo 463" transform="translate(11.492 69.842)">
          <path id="Caminho_357" data-name="Caminho 357" d="M1821.718,1527.19s50.935,18.756,58.585,18.373c4.949-.249,46.061-14.7,46.061-14.7l3.69,6.983s-40.018,25.719-51.02,25.594c-21.72-.249-58.371-13.583-62.5-16.2S1809.7,1529.841,1821.718,1527.19Z" transform="translate(-1813.027 -1527.19)" fill="#ffb27d"/>
        </g>
        <g id="Grupo_464" data-name="Grupo 464" transform="translate(124.828 67.655)">
          <path id="Caminho_358" data-name="Caminho 358" d="M2040.9,1528.651s3.691-5.68,7.366-5.849,10.022,2.507,12.2,2.925,8.351,2.422,6.516,5.431-10.36,3.676-14.031,3.009-8.351,1.472-8.351,1.472Z" transform="translate(-2040.9 -1522.795)" fill="#ffb27d"/>
        </g>
        <g id="Grupo_465" data-name="Grupo 465" transform="translate(131.194 64.468)">
          <path id="Caminho_359" data-name="Caminho 359" d="M2053.7,1519.755s5.844-2.681,7.515-3.183,1.338.01.835,1.592-3.507,3.094-3.507,3.591S2053.7,1519.755,2053.7,1519.755Z" transform="translate(-2053.7 -1516.387)" fill="#ffb27d"/>
        </g>
        <g id="Grupo_466" data-name="Grupo 466" transform="translate(164.543 64.766)">
          <path id="Caminho_360" data-name="Caminho 360" d="M2127.152,1522.722s-2.333-7.684-4.894-5.267c-2.666,2.512-1.05,5.023-.721,8.227.622,6.123,1.86,5.859,2.646,5.585S2128.022,1525.8,2127.152,1522.722Z" transform="translate(-2120.751 -1516.984)" fill="#ffb27d"/>
        </g>
        <g id="Grupo_467" data-name="Grupo 467" transform="translate(166.049 71.672)">
          <path id="Caminho_361" data-name="Caminho 361" d="M2128.813,1530.87a9.754,9.754,0,0,1-5.033,9.952l1.84-4.5Z" transform="translate(-2123.78 -1530.87)" fill="#ffb27d"/>
        </g>
        <g id="Grupo_468" data-name="Grupo 468" transform="translate(56.271 46.993)">
          <path id="Caminho_362" data-name="Caminho 362" d="M1911.411,1481.772s-2.188-.865-8.351-.368c0,0,.328,2.4,4.869,2.641A3.617,3.617,0,0,0,1911.411,1481.772Z" transform="translate(-1903.06 -1481.25)" fill="#fff"/>
        </g>
        <g id="Grupo_471" data-name="Grupo 471" transform="translate(9.664 68.655)">
          <g id="Grupo_470" data-name="Grupo 470">
            <g id="Grupo_469" data-name="Grupo 469">
              <path id="Caminho_363" data-name="Caminho 363" d="M1846.111,1535.236s-4.556,14.419-20.2,17.7c0,0-25.833-7.958-12.971-25.56C1812.937,1527.378,1825.655,1517.928,1846.111,1535.236Z" transform="translate(-1809.352 -1524.803)" fill="#00a4ff"/>
            </g>
          </g>
        </g>
        <g id="Grupo_472" data-name="Grupo 472" transform="translate(170.456 67.673)">
          <path id="Caminho_364" data-name="Caminho 364" d="M2133.267,1527.754s1.074-3.6,1.134-4.223-.015-.935-.567-.5a3.029,3.029,0,0,0-1.149,2.681C2132.934,1526.8,2133.267,1527.754,2133.267,1527.754Z" transform="translate(-2132.64 -1522.83)" fill="#ffb27d"/>
        </g>
      </g>
      <g id="Grupo_548" data-name="Grupo 548" transform="translate(452.957 310.583)">
        <g id="Grupo_478" data-name="Grupo 478" transform="translate(74.918 432.522)">
          <g id="Grupo_477" data-name="Grupo 477">
            <g id="Grupo_474" data-name="Grupo 474">
              <g id="Grupo_473" data-name="Grupo 473">
                <path id="Caminho_365" data-name="Caminho 365" d="M1563.584,1677.2a46.93,46.93,0,0,0-1.1-7.306,28.716,28.716,0,0,0-3.357-7.938,29.778,29.778,0,0,0-35.756-12.648,27.883,27.883,0,0,0-7.51,4.049,27.092,27.092,0,0,0-6.272,6.307,29.553,29.553,0,0,0,0,35.084,34.028,34.028,0,0,0,2.9,3.442,33.211,33.211,0,0,0,3.367,2.865,27.89,27.89,0,0,0,7.51,4.049,29.863,29.863,0,0,0,35.756-12.653,28.928,28.928,0,0,0,3.357-7.938,47.1,47.1,0,0,0,1.1-7.311,2.14,2.14,0,0,1,.02.487c-.01.368-.02.845-.03,1.437a13.89,13.89,0,0,1-.194,2.328,21.582,21.582,0,0,1-.572,3.138,28.475,28.475,0,0,1-3.268,8.1,30.353,30.353,0,0,1-20.427,14.419,30.467,30.467,0,0,1-16.005-1.273,28.556,28.556,0,0,1-7.729-4.133,27.811,27.811,0,0,1-6.461-6.466,30.305,30.305,0,0,1,0-36.064,27.815,27.815,0,0,1,6.461-6.466,28.811,28.811,0,0,1,7.724-4.133,30.466,30.466,0,0,1,16.005-1.273,30.33,30.33,0,0,1,20.427,14.414,28.471,28.471,0,0,1,3.268,8.1,21.635,21.635,0,0,1,.577,3.138,13.888,13.888,0,0,1,.194,2.328c.015.592.025,1.064.03,1.437A2.115,2.115,0,0,1,1563.584,1677.2Z" transform="translate(-1502.97 -1646.785)" fill="#00a4ff"/>
              </g>
            </g>
            <g id="Grupo_476" data-name="Grupo 476" transform="translate(14.886 17.913)">
              <g id="Grupo_475" data-name="Grupo 475">
                <path id="Caminho_366" data-name="Caminho 366" d="M1547.4,1707.8l-14.5-12.479,4.352-5.063,9.729,8.371,15.294-15.831,4.8,4.64Z" transform="translate(-1532.9 -1682.8)" fill="#00a4ff"/>
              </g>
            </g>
          </g>
        </g>
        <g id="Grupo_483" data-name="Grupo 483" transform="translate(0 354.533)">
          <g id="Grupo_481" data-name="Grupo 481">
            <g id="Grupo_480" data-name="Grupo 480">
              <g id="Grupo_479" data-name="Grupo 479">
                <path id="Caminho_367" data-name="Caminho 367" d="M1537.385,1541.626H1378.163a25.823,25.823,0,0,1-25.823-25.823h0a25.823,25.823,0,0,1,25.823-25.823h159.222a25.826,25.826,0,0,1,25.823,25.823h0A25.82,25.82,0,0,1,1537.385,1541.626Z" transform="translate(-1352.34 -1489.98)" fill="#00a4ff"/>
              </g>
            </g>
          </g>
          <g id="Grupo_482" data-name="Grupo 482" transform="translate(64.404 18.756)">
            <path id="Caminho_368" data-name="Caminho 368" d="M1481.83,1527.69h2.512v12.131h-2.512Z" transform="translate(-1481.83 -1527.69)" fill="#fff"/>
            <path id="Caminho_369" data-name="Caminho 369" d="M1501.938,1539.826l-.015-7.276-3.2,6h-1.134l-3.183-5.839v7.122h-2.358V1527.7h2.079l4.063,7.535,4-7.535h2.064l.03,12.131h-2.353Z" transform="translate(-1486.967 -1527.695)" fill="#fff"/>
            <path id="Caminho_370" data-name="Caminho 370" d="M1531.718,1539.826l-.015-7.276-3.2,6h-1.134l-3.183-5.839v7.122h-2.358V1527.7h2.079l4.063,7.535,4-7.535h2.064l.03,12.131h-2.353Z" transform="translate(-1501.935 -1527.695)" fill="#fff"/>
            <path id="Caminho_371" data-name="Caminho 371" d="M1551.42,1534.484v-6.794h2.512v6.69c0,2.308.9,3.258,2.422,3.258s2.422-.955,2.422-3.258v-6.69h2.482v6.794c0,3.571-1.83,5.546-4.919,5.546S1551.42,1538.05,1551.42,1534.484Z" transform="translate(-1516.808 -1527.69)" fill="#fff"/>
            <path id="Caminho_372" data-name="Caminho 372" d="M1586.142,1527.69v12.131h-2.064l-5.416-7.366v7.366h-2.482V1527.69h2.079l5.4,7.366v-7.366Z" transform="translate(-1529.253 -1527.69)" fill="#fff"/>
            <path id="Caminho_373" data-name="Caminho 373" d="M1601.38,1527.69h2.512v12.131h-2.512Z" transform="translate(-1541.92 -1527.69)" fill="#fff"/>
            <path id="Caminho_374" data-name="Caminho 374" d="M1612.617,1529.978h-3.477v-2.288h9.465v2.288h-3.477v9.843h-2.512Z" transform="translate(-1545.82 -1527.69)" fill="#fff"/>
            <path id="Caminho_375" data-name="Caminho 375" d="M1634.159,1535.523v4.3h-2.512v-4.332l-4.208-7.8h2.671l2.9,5.386,2.9-5.386h2.467Z" transform="translate(-1555.018 -1527.69)" fill="#fff"/>
          </g>
        </g>
        <g id="Grupo_537" data-name="Grupo 537" transform="translate(3.432 118.361)">
          <g id="Grupo_524" data-name="Grupo 524" transform="translate(16.826 14.585)">
            <g id="Grupo_484" data-name="Grupo 484" transform="translate(0.114 100.175)">
              <path id="Caminho_376" data-name="Caminho 376" d="M1393.3,1254.977v9.107h9.107V1245.87H1393.3Z" transform="translate(-1393.3 -1245.87)" fill="#1e2e34"/>
            </g>
            <g id="Grupo_485" data-name="Grupo 485" transform="translate(0.114 54.641)">
              <rect id="Retângulo_141" data-name="Retângulo 141" width="9.107" height="9.107" fill="#1e2e34"/>
            </g>
            <g id="Grupo_486" data-name="Grupo 486" transform="translate(56.386 154.905)">
              <rect id="Retângulo_142" data-name="Retângulo 142" width="9.107" height="9.107" fill="#1e2e34"/>
            </g>
            <g id="Grupo_487" data-name="Grupo 487" transform="translate(0.114 63.748)">
              <path id="Caminho_377" data-name="Caminho 377" d="M1402.407,1181.737v9.107H1393.3v9.107h9.107v9.107h18.214v9.107h9.107v-9.107h9.107v-18.214h-9.107v9.107h-18.214v-27.32h-9.107Z" transform="translate(-1393.3 -1172.63)" fill="#1e2e34"/>
            </g>
            <g id="Grupo_488" data-name="Grupo 488" transform="translate(18.328 54.641)">
              <path id="Caminho_378" data-name="Caminho 378" d="M1439.027,1154.32h-9.107v9.107h18.214v-9.107Z" transform="translate(-1429.92 -1154.32)" fill="#1e2e34"/>
            </g>
            <g id="Grupo_489" data-name="Grupo 489" transform="translate(63.519 118.741)">
              <path id="Caminho_379" data-name="Caminho 379" d="M1525.674,1292.307h4.894V1283.2h-9.788v9.107Z" transform="translate(-1520.78 -1283.2)" fill="#1e2e34"/>
            </g>
            <g id="Grupo_490" data-name="Grupo 490" transform="translate(36.542 63.748)">
              <rect id="Retângulo_143" data-name="Retângulo 143" width="9.107" height="9.107" fill="#1e2e34"/>
            </g>
            <g id="Grupo_491" data-name="Grupo 491" transform="translate(100.284 100.175)">
              <rect id="Retângulo_144" data-name="Retângulo 144" width="9.107" height="9.107" fill="#1e2e34"/>
            </g>
            <g id="Grupo_492" data-name="Grupo 492" transform="translate(109.391 0.005)">
              <rect id="Retângulo_145" data-name="Retângulo 145" width="9.107" height="9.107" fill="#1e2e34"/>
            </g>
            <g id="Grupo_493" data-name="Grupo 493" transform="translate(45.648 45.534)">
              <path id="Caminho_380" data-name="Caminho 380" d="M1503.063,1163.33v-9.107h9.107v-9.107h-9.107v-9.107h-9.107v9.107h-9.107v9.107h9.107v36.427h9.107v-18.214h9.107v-9.107Z" transform="translate(-1484.85 -1136.01)" fill="#1e2e34"/>
            </g>
            <g id="Grupo_494" data-name="Grupo 494" transform="translate(100.284 154.815)">
              <path id="Caminho_381" data-name="Caminho 381" d="M1603.807,1364.837h9.107v-9.107H1594.7v9.107Z" transform="translate(-1594.7 -1355.73)" fill="#1e2e34"/>
            </g>
            <g id="Grupo_495" data-name="Grupo 495" transform="translate(91.177 0.005)">
              <rect id="Retângulo_146" data-name="Retângulo 146" width="9.107" height="9.107" fill="#1e2e34"/>
            </g>
            <g id="Grupo_496" data-name="Grupo 496" transform="translate(70.691 54.641)">
              <path id="Caminho_382" data-name="Caminho 382" d="M1562.52,1172.533v-9.107h-9.107v-9.107h-9.107v18.214H1535.2v9.107h18.214v-9.107Z" transform="translate(-1535.2 -1154.32)" fill="#1e2e34"/>
            </g>
            <g id="Grupo_497" data-name="Grupo 497" transform="translate(140.302 54.641)">
              <rect id="Retângulo_147" data-name="Retângulo 147" width="9.107" height="9.107" fill="#1e2e34"/>
            </g>
            <g id="Grupo_498" data-name="Grupo 498" transform="translate(45.907 100.175)">
              <rect id="Retângulo_148" data-name="Retângulo 148" width="9.107" height="9.107" fill="#1e2e34"/>
            </g>
            <g id="Grupo_499" data-name="Grupo 499" transform="translate(72.969 9.112)">
              <path id="Caminho_383" data-name="Caminho 383" d="M1557.989,1099.2V1090.1h9.107v-9.107h18.214v-9.107H1576.2v-9.1H1567.1v9.1h-9.107v9.107h-9.107v9.107h-9.1v9.107h18.208Z" transform="translate(-1539.78 -1062.78)" fill="#1e2e34"/>
            </g>
            <g id="Grupo_500" data-name="Grupo 500" transform="translate(72.969 91.068)">
              <path id="Caminho_384" data-name="Caminho 384" d="M1557.989,1245.774v-9.107h9.107v-9.107h-18.214v9.107h-9.1v9.107h18.208Z" transform="translate(-1539.78 -1227.56)" fill="#1e2e34"/>
            </g>
            <g id="Grupo_501" data-name="Grupo 501" transform="translate(63.862 127.49)">
              <path id="Caminho_385" data-name="Caminho 385" d="M1576.106,1319V1309.9h-18.214v-9.107h-9.107v9.107h-9.107V1319H1521.47v9.107h27.315V1319h9.107v9.107H1567V1319Z" transform="translate(-1521.47 -1300.79)" fill="#1e2e34"/>
            </g>
            <g id="Grupo_502" data-name="Grupo 502" transform="translate(54.755 0.005)">
              <path id="Caminho_386" data-name="Caminho 386" d="M1530.475,1053.577v-9.107h-18.208v9.107h-9.107v9.1h18.214v-9.1Z" transform="translate(-1503.16 -1044.47)" fill="#1e2e34"/>
            </g>
            <g id="Grupo_503" data-name="Grupo 503" transform="translate(72.969 18.214)">
              <rect id="Retângulo_149" data-name="Retângulo 149" width="9.107" height="9.107" fill="#1e2e34"/>
            </g>
            <g id="Grupo_504" data-name="Grupo 504" transform="translate(95.733 36.427)">
              <path id="Caminho_387" data-name="Caminho 387" d="M1594.657,1135.914h-9.107v27.32h18.214v-9.107h-9.107v-9.107h9.107v-9.107h9.107v-9.107h-9.107V1117.7h-9.107v18.214Z" transform="translate(-1585.55 -1117.7)" fill="#1e2e34"/>
            </g>
            <g id="Grupo_505" data-name="Grupo 505" transform="translate(63.862 27.32)">
              <rect id="Retângulo_150" data-name="Retângulo 150" width="9.107" height="9.107" fill="#1e2e34"/>
            </g>
            <g id="Grupo_506" data-name="Grupo 506" transform="translate(100.284 109.281)">
              <path id="Caminho_388" data-name="Caminho 388" d="M1594.7,1273.287v9.107h18.214v-9.107h18.214v-9.107h-27.32v9.107Z" transform="translate(-1594.7 -1264.18)" fill="#1e2e34"/>
            </g>
            <g id="Grupo_507" data-name="Grupo 507" transform="translate(140.302 81.961)">
              <rect id="Retângulo_151" data-name="Retângulo 151" width="9.107" height="9.107" fill="#1e2e34"/>
            </g>
            <g id="Grupo_508" data-name="Grupo 508" transform="translate(109.391 91.068)">
              <rect id="Retângulo_152" data-name="Retângulo 152" width="9.107" height="9.107" fill="#1e2e34"/>
            </g>
            <g id="Grupo_509" data-name="Grupo 509" transform="translate(123.054 63.748)">
              <path id="Caminho_389" data-name="Caminho 389" d="M1658.694,1172.63H1640.48v9.107h9.107v9.107h9.107V1172.63Z" transform="translate(-1640.48 -1172.63)" fill="#1e2e34"/>
            </g>
            <g id="Grupo_510" data-name="Grupo 510" transform="translate(127.604 91.068)">
              <rect id="Retângulo_153" data-name="Retângulo 153" width="9.107" height="9.107" fill="#1e2e34"/>
            </g>
            <g id="Grupo_511" data-name="Grupo 511" transform="translate(18.328 109.271)">
              <path id="Caminho_390" data-name="Caminho 390" d="M1448.134,1300.766h27.33V1264.16h-36.606v9.117h-8.938v9.107h8.938v9.107h-8.938v9.107h8.938v.169h.169v8.938h-9.107v18.214h9.107v-9.107h9.107v-18.045Zm20.317-29.6v22.764h-22.764v-22.764Z" transform="translate(-1429.92 -1264.16)" fill="#1e2e34"/>
            </g>
            <g id="Grupo_512" data-name="Grupo 512" transform="translate(136.711 100.175)">
              <path id="Caminho_391" data-name="Caminho 391" d="M1686.154,1254.977h9.107v-9.107h-27.32v9.107h18.214Z" transform="translate(-1667.94 -1245.87)" fill="#1e2e34"/>
            </g>
            <g id="Grupo_513" data-name="Grupo 513" transform="translate(154.925 54.641)">
              <path id="Caminho_392" data-name="Caminho 392" d="M1704.56,1172.533h9.107V1154.32h-9.107v18.214Z" transform="translate(-1704.56 -1154.32)" fill="#1e2e34"/>
            </g>
            <g id="Grupo_514" data-name="Grupo 514" transform="translate(73.307 118.741)">
              <path id="Caminho_393" data-name="Caminho 393" d="M1549.567,1283.2h-9.107v18.214h9.107V1283.2Z" transform="translate(-1540.46 -1283.2)" fill="#1e2e34"/>
            </g>
            <g id="Grupo_515" data-name="Grupo 515" transform="translate(164.032 109.281)">
              <rect id="Retângulo_154" data-name="Retângulo 154" width="9.107" height="9.107" fill="#1e2e34"/>
            </g>
            <g id="Grupo_516" data-name="Grupo 516" transform="translate(164.032 81.961)">
              <path id="Caminho_394" data-name="Caminho 394" d="M1731.977,1218.357v-9.107h-9.107v18.214h9.107Z" transform="translate(-1722.87 -1209.25)" fill="#1e2e34"/>
            </g>
            <g id="Grupo_517" data-name="Grupo 517" transform="translate(0.114 154.815)">
              <path id="Caminho_395" data-name="Caminho 395" d="M1402.407,1355.73H1393.3v18.209h9.107V1355.73Z" transform="translate(-1393.3 -1355.73)" fill="#1e2e34"/>
            </g>
            <g id="Grupo_518" data-name="Grupo 518" transform="translate(127.604)">
              <path id="Caminho_396" data-name="Caminho 396" d="M1695.164,1089.994V1044.46H1649.63v45.534Zm-38.705-6.829v-31.871h31.871v31.871Z" transform="translate(-1649.63 -1044.46)" fill="#1e2e34"/>
            </g>
            <g id="Grupo_519" data-name="Grupo 519" transform="translate(141.267 13.663)">
              <rect id="Retângulo_155" data-name="Retângulo 155" width="18.214" height="18.214" fill="#1e2e34"/>
            </g>
            <g id="Grupo_520" data-name="Grupo 520" transform="translate(127.604 127.495)">
              <path id="Caminho_397" data-name="Caminho 397" d="M1695.164,1300.8H1649.63v45.534h45.534Zm-38.705,38.7v-31.871h31.871V1339.5Z" transform="translate(-1649.63 -1300.8)" fill="#1e2e34"/>
            </g>
            <g id="Grupo_521" data-name="Grupo 521" transform="translate(141.267 141.153)">
              <rect id="Retângulo_156" data-name="Retângulo 156" width="18.214" height="18.214" fill="#1e2e34"/>
            </g>
            <g id="Grupo_522" data-name="Grupo 522" transform="translate(0 0.005)">
              <path id="Caminho_398" data-name="Caminho 398" d="M1393.07,1044.47V1090H1438.6V1044.47Zm38.705,6.829v31.871H1399.9V1051.3Z" transform="translate(-1393.07 -1044.47)" fill="#1e2e34"/>
            </g>
            <g id="Grupo_523" data-name="Grupo 523" transform="translate(13.663 13.663)">
              <rect id="Retângulo_157" data-name="Retângulo 157" width="18.214" height="18.214" fill="#1e2e34"/>
            </g>
          </g>
          <g id="Grupo_526" data-name="Grupo 526" transform="translate(1.763 0.042)">
            <g id="Grupo_525" data-name="Grupo 525">
              <path id="Caminho_399" data-name="Caminho 399" d="M1364.862,1061.51v-32.339c0-3.014.507-5.869,2.561-8.241a11.211,11.211,0,0,1,8.863-3.676h34.005a1.018,1.018,0,0,0,0-2.034h-33.632a14.244,14.244,0,0,0-8.107,2.049,12.836,12.836,0,0,0-5.725,10.619c-.094,5.322,0,10.654,0,15.975v17.647a1.018,1.018,0,0,0,2.034,0Z" transform="translate(-1362.785 -1015.22)" fill="#00a4ff"/>
            </g>
          </g>
          <g id="Grupo_528" data-name="Grupo 528" transform="translate(0 156.57)">
            <g id="Grupo_527" data-name="Grupo 527">
              <path id="Caminho_400" data-name="Caminho 400" d="M1405.53,1376.351h-32.339c-3.014,0-5.869-.507-8.241-2.566a11.211,11.211,0,0,1-3.676-8.863v-34a1.018,1.018,0,0,0-2.034,0v33.632a14.244,14.244,0,0,0,2.049,8.107,12.835,12.835,0,0,0,10.619,5.725c5.322.094,10.654,0,15.975,0h17.647a1.015,1.015,0,0,0,0-2.029Z" transform="translate(-1359.24 -1329.934)" fill="#00a4ff"/>
            </g>
          </g>
          <g id="Grupo_532" data-name="Grupo 532" transform="translate(155.558 156.254)">
            <g id="Grupo_531" data-name="Grupo 531">
              <g id="Grupo_530" data-name="Grupo 530">
                <g id="Grupo_529" data-name="Grupo 529">
                  <path id="Caminho_401" data-name="Caminho 401" d="M1718.416,1330.279v32.339c0,3.014-.507,5.869-2.561,8.241a11.211,11.211,0,0,1-8.863,3.676h-34.005a1.018,1.018,0,0,0,0,2.034h33.632a14.245,14.245,0,0,0,8.107-2.049,12.836,12.836,0,0,0,5.725-10.619c.094-5.322,0-10.654,0-15.975v-17.646a1.018,1.018,0,0,0-2.034,0Z" transform="translate(-1672.004 -1329.297)" fill="#00a4ff"/>
                </g>
              </g>
            </g>
          </g>
          <g id="Grupo_536" data-name="Grupo 536" transform="translate(156.147)">
            <g id="Grupo_535" data-name="Grupo 535">
              <g id="Grupo_534" data-name="Grupo 534">
                <g id="Grupo_533" data-name="Grupo 533">
                  <path id="Caminho_402" data-name="Caminho 402" d="M1674.169,1017.212h32.339c3.014,0,5.869.507,8.241,2.561a11.212,11.212,0,0,1,3.676,8.863v34a1.018,1.018,0,0,0,2.034,0v-33.632a14.244,14.244,0,0,0-2.049-8.107,12.836,12.836,0,0,0-10.619-5.725c-5.322-.094-10.654,0-15.975,0h-17.647a1.018,1.018,0,0,0,0,2.034Z" transform="translate(-1673.188 -1015.135)" fill="#00a4ff"/>
                </g>
              </g>
            </g>
          </g>
        </g>
        <g id="Grupo_540" data-name="Grupo 540" transform="translate(30.782 36.934)">
          <path id="Caminho_403" data-name="Caminho 403" d="M1423.322,851.6v10.877h-1.134v-5.018h-6.809v5.018h-1.149V851.6h1.149v4.849h6.809V851.6Z" transform="translate(-1414.23 -851.51)" fill="#1e2e34"/>
          <path id="Caminho_404" data-name="Caminho 404" d="M1447.324,861.483v.995h-7.694V851.6h7.46v.995h-6.312v3.87h5.625v.98h-5.625v4.039Z" transform="translate(-1426.997 -851.51)" fill="#1e2e34"/>
          <path id="Caminho_405" data-name="Caminho 405" d="M1465.59,859.573h-6.063l-1.308,2.9h-1.2l4.974-10.877h1.134l4.974,10.877h-1.214Zm-.418-.935-2.611-5.844-2.611,5.844Z" transform="translate(-1435.738 -851.51)" fill="#1e2e34"/>
          <path id="Caminho_406" data-name="Caminho 406" d="M1482.94,851.6h1.149v9.883h6.093v.995h-7.242Z" transform="translate(-1448.766 -851.51)" fill="#1e2e34"/>
          <path id="Caminho_407" data-name="Caminho 407" d="M1499.695,852.595h-3.825V851.6h8.8v.995h-3.825v9.883h-1.149Z" transform="translate(-1455.265 -851.51)" fill="#1e2e34"/>
          <path id="Caminho_408" data-name="Caminho 408" d="M1526.332,851.6v10.877H1525.2v-5.018h-6.809v5.018h-1.149V851.6h1.149v4.849h6.809V851.6Z" transform="translate(-1466.006 -851.51)" fill="#1e2e34"/>
          <path id="Caminho_409" data-name="Caminho 409" d="M1559.355,855.33c0,2.318-1.676,3.715-4.447,3.715h-2.919v3.437h-1.149V851.6h4.073C1557.674,851.6,1559.355,853,1559.355,855.33Zm-1.154,0c0-1.741-1.149-2.735-3.327-2.735h-2.89v5.441h2.89C1557.052,858.036,1558.2,857.041,1558.2,855.33Z" transform="translate(-1482.895 -851.51)" fill="#1e2e34"/>
          <path id="Caminho_410" data-name="Caminho 410" d="M1576.92,859.573h-6.063l-1.308,2.9h-1.2l4.974-10.877h1.134l4.974,10.877h-1.214Zm-.423-.935-2.611-5.844-2.611,5.844Z" transform="translate(-1491.696 -851.51)" fill="#1e2e34"/>
          <path id="Caminho_411" data-name="Caminho 411" d="M1592.17,861.074l.448-.885a5.341,5.341,0,0,0,3.591,1.323c2.034,0,2.919-.855,2.919-1.925,0-2.984-6.7-1.149-6.7-5.173,0-1.6,1.243-2.984,4.009-2.984a6.134,6.134,0,0,1,3.372.965l-.388.915a5.6,5.6,0,0,0-2.984-.9c-1.99,0-2.875.885-2.875,1.974,0,2.984,6.7,1.179,6.7,5.143,0,1.6-1.273,2.969-4.059,2.969A5.954,5.954,0,0,1,1592.17,861.074Z" transform="translate(-1503.669 -851.425)" fill="#1e2e34"/>
          <path id="Caminho_412" data-name="Caminho 412" d="M1611.39,861.074l.448-.885a5.341,5.341,0,0,0,3.591,1.323c2.034,0,2.919-.855,2.919-1.925,0-2.984-6.7-1.149-6.7-5.173,0-1.6,1.243-2.984,4.009-2.984a6.133,6.133,0,0,1,3.372.965l-.388.915a5.6,5.6,0,0,0-2.984-.9c-1.99,0-2.875.885-2.875,1.974,0,2.984,6.7,1.179,6.7,5.143,0,1.6-1.273,2.969-4.059,2.969A5.954,5.954,0,0,1,1611.39,861.074Z" transform="translate(-1513.329 -851.425)" fill="#1e2e34"/>
          <path id="Caminho_413" data-name="Caminho 413" d="M1641.22,855.33c0,2.318-1.676,3.715-4.442,3.715h-2.919v3.437h-1.149V851.6h4.073C1639.539,851.6,1641.22,853,1641.22,855.33Zm-1.149,0c0-1.741-1.149-2.735-3.327-2.735h-2.89v5.441h2.89C1638.922,858.036,1640.071,857.041,1640.071,855.33Z" transform="translate(-1524.045 -851.51)" fill="#1e2e34"/>
          <path id="Caminho_414" data-name="Caminho 414" d="M1653.19,856.951a5.715,5.715,0,1,1,5.72,5.531A5.474,5.474,0,0,1,1653.19,856.951Zm10.271,0a4.571,4.571,0,1,0-4.556,4.506A4.408,4.408,0,0,0,1663.461,856.951Z" transform="translate(-1534.339 -851.42)" fill="#1e2e34"/>
          <path id="Caminho_415" data-name="Caminho 415" d="M1688.776,862.477l-2.487-3.5a8.147,8.147,0,0,1-.87.045h-2.92v3.452h-1.149V851.6h4.073c2.765,0,4.442,1.4,4.442,3.73a3.367,3.367,0,0,1-2.487,3.417l2.656,3.73Zm-.065-7.147c0-1.741-1.149-2.735-3.327-2.735h-2.89v5.456h2.89C1687.562,858.051,1688.711,857.041,1688.711,855.33Z" transform="translate(-1548.493 -851.51)" fill="#1e2e34"/>
          <path id="Caminho_416" data-name="Caminho 416" d="M1704,852.595h-3.825V851.6h8.794v.995h-3.825v9.883H1704v-9.883Z" transform="translate(-1557.958 -851.51)" fill="#1e2e34"/>
          <g id="Grupo_539" data-name="Grupo 539" transform="translate(35.965 23.436)">
            <g id="Grupo_538" data-name="Grupo 538">
              <path id="Caminho_417" data-name="Caminho 417" d="M1486.54,905.488c0-4.059,2.78-6.938,6.565-6.938a6.048,6.048,0,0,1,5.133,2.517l-2.149,2.173a3.416,3.416,0,0,0-2.815-1.562c-1.96,0-3.327,1.527-3.327,3.815s1.363,3.815,3.327,3.815a3.416,3.416,0,0,0,2.815-1.562l2.149,2.174a6.048,6.048,0,0,1-5.133,2.517C1489.32,912.427,1486.54,909.547,1486.54,905.488Z" transform="translate(-1486.54 -898.545)" fill="#00a4ff"/>
              <path id="Caminho_418" data-name="Caminho 418" d="M1511.34,905.488a6.641,6.641,0,1,1,6.635,6.938A6.592,6.592,0,0,1,1511.34,905.488Zm9.858,0c0-2.308-1.417-3.815-3.223-3.815s-3.223,1.507-3.223,3.815,1.417,3.815,3.223,3.815S1521.2,907.8,1521.2,905.488Z" transform="translate(-1499.005 -898.545)" fill="#00a4ff"/>
              <path id="Caminho_419" data-name="Caminho 419" d="M1551.433,899.08l-5.118,13.344h-3.327l-5.1-13.344h3.651l3.243,8.694,3.308-8.694Z" transform="translate(-1512.35 -898.811)" fill="#00a4ff"/>
              <path id="Caminho_420" data-name="Caminho 420" d="M1566.53,899.08h3.377v13.344h-3.377Z" transform="translate(-1526.746 -898.811)" fill="#00a4ff"/>
              <path id="Caminho_421" data-name="Caminho 421" d="M1578.16,899.08h5.645a6.675,6.675,0,0,1,0,13.349h-5.645Zm5.511,10.335c2.029,0,3.392-1.353,3.392-3.661s-1.363-3.661-3.392-3.661h-2.134v7.321Z" transform="translate(-1532.591 -898.811)" fill="#00a4ff"/>
              <path id="Caminho_422" data-name="Caminho 422" d="M1605.81,912.19h4.984v2.785h-4.984Z" transform="translate(-1546.489 -905.401)" fill="#00a4ff"/>
              <path id="Caminho_423" data-name="Caminho 423" d="M1622.475,899.075v13.344H1619.1V901.99h-2.218v-2.92h5.6Z" transform="translate(-1552.053 -898.806)" fill="#00a4ff"/>
              <path id="Caminho_424" data-name="Caminho 424" d="M1641.336,905.12c0,4.65-2.576,7.3-6.361,7.3a6.113,6.113,0,0,1-3.5-.975l1.229-2.706a3.414,3.414,0,0,0,2.2.686c1.686,0,2.815-1.069,3-3.089a3.753,3.753,0,0,1-2.676.97,4.031,4.031,0,0,1-4.108-4.213,4.445,4.445,0,0,1,4.675-4.556C1639.157,898.545,1641.336,900.793,1641.336,905.12Zm-3.651-2.213a1.578,1.578,0,0,0-1.671-1.676,1.687,1.687,0,0,0,.015,3.372A1.593,1.593,0,0,0,1637.685,902.907Z" transform="translate(-1559.211 -898.54)" fill="#00a4ff"/>
            </g>
          </g>
        </g>
        <g id="Grupo_547" data-name="Grupo 547" transform="translate(208.402)">
          <g id="Grupo_542" data-name="Grupo 542">
            <g id="Grupo_541" data-name="Grupo 541">
              <path id="Caminho_425" data-name="Caminho 425" d="M1791.439,777.344a99.3,99.3,0,0,1-10.042.338c-5.546.045-10.047-.03-10.047-.169a198.994,198.994,0,0,1,20.089-.169Z" transform="translate(-1771.35 -777.16)" fill="#1e2e34"/>
            </g>
          </g>
          <g id="Grupo_544" data-name="Grupo 544" transform="translate(0.04 5.138)">
            <g id="Grupo_543" data-name="Grupo 543">
              <path id="Caminho_426" data-name="Caminho 426" d="M1791.519,787.674a99.291,99.291,0,0,1-10.042.338c-5.546.045-10.047-.03-10.047-.169a198.947,198.947,0,0,1,20.089-.169Z" transform="translate(-1771.43 -787.49)" fill="#1e2e34"/>
            </g>
          </g>
          <g id="Grupo_546" data-name="Grupo 546" transform="translate(0.085 10.277)">
            <g id="Grupo_545" data-name="Grupo 545">
              <path id="Caminho_427" data-name="Caminho 427" d="M1791.609,798.006a99.311,99.311,0,0,1-10.042.338c-5.546.045-10.047-.03-10.047-.169a99.313,99.313,0,0,1,10.042-.338C1787.108,797.792,1791.609,797.867,1791.609,798.006Z" transform="translate(-1771.52 -797.824)" fill="#1e2e34"/>
            </g>
          </g>
        </g>
      </g>
      <g id="Grupo_579" data-name="Grupo 579" transform="translate(410.571 72.959)">
        <g id="Grupo_578" data-name="Grupo 578">
          <g id="Grupo_572" data-name="Grupo 572">
            <g id="Grupo_549" data-name="Grupo 549" transform="translate(94.54 256.708)">
              <path id="Caminho_428" data-name="Caminho 428" d="M1458.15,848.615a3.682,3.682,0,0,0-.656,3.944.039.039,0,0,0,.01.02c.95,2.631,4.093,5.565,7.744,8.495.468.378.88.721,1.244,1.035l.278.249c.075.065.144.134.214.194,3.4,3.138,2.124,3.855,8.236,10.226,6.973,7.257,11.773,7.386,13.14,6.724,1.154-.562-1.194-4.412-3.795-8.739-.124-.209-.249-.418-.378-.632-.348-.577-.691-1.159-1.035-1.736-3.049-5.207-2.263-7.65-1.542-15.394.587-6.3,9.793-35.169,9.793-35.169l-13.364-2.3s-4.024,22.993-8.46,26.534c-2.373,1.89-5.023,1.91-7.306,3.313-.159.1-.318.2-.472.3A17.829,17.829,0,0,0,1458.15,848.615Z" transform="translate(-1457.199 -815.53)" fill="#ffc49c"/>
            </g>
            <g id="Grupo_550" data-name="Grupo 550" transform="translate(94.54 286.555)">
              <path id="Caminho_429" data-name="Caminho 429" d="M1458.15,878.778a3.682,3.682,0,0,0-.656,3.944.039.039,0,0,0,.01.02c1.164,2.626,4.228,5.546,7.759,8.47.463.383.87.736,1.229,1.064l.278.249c.075.065.144.134.214.194,3.4,3.138,2.124,3.855,8.236,10.226,6.973,7.257,11.773,7.386,13.14,6.724,1.154-.562-1.194-4.412-3.795-8.739a29.692,29.692,0,0,1-12.429-9.161c-4.2-5.357-7-12.245-9.858-16.229-.159.1-.318.2-.473.3A17.722,17.722,0,0,0,1458.15,878.778Z" transform="translate(-1457.199 -875.54)" fill="#233862"/>
            </g>
            <g id="Grupo_551" data-name="Grupo 551" transform="translate(192.566 252.644)">
              <path id="Caminho_430" data-name="Caminho 430" d="M1664.973,836.163c.826,4.123,6.7,3.437,13.275,1.83s5.009.3,14.359-.731,12.181-4.521,12.469-5.914c.254-1.233-4.367-1.666-9.321-2.238-.622-.07-1.248-.149-1.875-.224-5.6-.7-9.694-4.312-14.772-7.276-4.815-2.81-12-14.25-12-14.25l-12.822,1.015s6.729,10.221,9.331,14.662c1.532,2.611,1.447,6.068,1.258,8.739A16.209,16.209,0,0,0,1664.973,836.163Z" transform="translate(-1654.29 -807.36)" fill="#ffc49c"/>
            </g>
            <g id="Grupo_552" data-name="Grupo 552" transform="translate(203.057 274.394)">
              <path id="Caminho_431" data-name="Caminho 431" d="M1688.851,859.973c6.57-1.607,5.008.3,14.359-.731s12.181-4.521,12.469-5.914c.254-1.233-4.367-1.666-9.321-2.238l-.045.095a26.373,26.373,0,0,1-13.389,4.163c-6.341.154-13.061-1.661-17.443-1.592a16.411,16.411,0,0,0,.1,4.387C1676.4,862.266,1682.28,861.579,1688.851,859.973Z" transform="translate(-1675.384 -851.09)" fill="#233862"/>
            </g>
            <g id="Grupo_553" data-name="Grupo 553" transform="translate(110.117 178.902)">
              <path id="Caminho_432" data-name="Caminho 432" d="M1532.512,679.648,1520.526,711.9l-15.647,42.117a25.414,25.414,0,0,1-8.316-.761,36.141,36.141,0,0,1-8.042-3.914s4.347-45.221,12.454-71.178c2.079-6.665,4.407-12.051,6.973-15.085C1520.516,648.229,1532.512,679.648,1532.512,679.648Z" transform="translate(-1488.52 -659.093)" fill="#0073a5"/>
            </g>
            <g id="Grupo_556" data-name="Grupo 556" transform="translate(27.334 141.791)">
              <g id="Grupo_555" data-name="Grupo 555">
                <g id="Grupo_554" data-name="Grupo 554">
                  <path id="Caminho_433" data-name="Caminho 433" d="M1436.666,590.921c-7.48-2.412-28.156.423-49.543,4.506a4.715,4.715,0,0,1-4.909-2.188l-3.009-4.964-48.6-3.795s-12.544,28.5-7.212,52.209c1.308,5.809,8.411,13.329,19.268,14.006,30.439,1.895,50.975-8.679,82.573-19.785,5.5-1.93,8,10.281,13.712,22.277s53.7,53.129,53.7,53.129,7.376.075,10.42-1.069a10.261,10.261,0,0,0,4.476-2.825S1454.378,596.636,1436.666,590.921Z" transform="translate(-1322.076 -584.48)" fill="#00a4ff"/>
                </g>
              </g>
            </g>
            <g id="Grupo_557" data-name="Grupo 557" transform="translate(0.175)">
              <path id="Caminho_434" data-name="Caminho 434" d="M1349.849,303.476c-6.227-3.268-15.7-3.71-17.239-3.919-18.412-2.477-29.5,24.286-30.15,32.394-1.2,14.946-9.107,17.224-20.238,26.584-22.312,18.766-15.771,40.575-3.571,48.677,7.321,4.859,20.223,0,20.223,0,.184.129,35.288-19.626,52.592-29.156C1377.418,374.371,1365.71,311.807,1349.849,303.476Z" transform="translate(-1267.471 -299.396)" fill="#233862"/>
            </g>
            <g id="Grupo_558" data-name="Grupo 558" transform="translate(46.001 43.338)">
              <path id="Caminho_435" data-name="Caminho 435" d="M1383.283,413.741c.075.05-8.515,2.984-14.26.438-5.406-2.387-9.5-11.28-9.415-11.285,2.457-.114,5.158-2.263,7.237-16.363l1.045.373,17.6,6.331s-1.273,5.645-2.1,11.027C1382.691,408.777,1382.318,413.1,1383.283,413.741Z" transform="translate(-1359.607 -386.53)" fill="#ffb27d"/>
            </g>
            <g id="Grupo_559" data-name="Grupo 559" transform="translate(54.278 43.716)">
              <path id="Caminho_436" data-name="Caminho 436" d="M1393.852,393.621s-.88,4.009-1.855,9.49c-10.111-1.82-14.324-10.355-15.747-15.821Z" transform="translate(-1376.25 -387.29)" fill="#ed975d"/>
            </g>
            <g id="Grupo_560" data-name="Grupo 560" transform="translate(52.518 13.295)">
              <path id="Caminho_437" data-name="Caminho 437" d="M1394.695,368.484s-24.083-3.233-21.834-18.2.646-25.46,16.115-24.028,17.592,7.59,18.059,12.767S1401.016,368.942,1394.695,368.484Z" transform="translate(-1372.712 -326.127)" fill="#ffb27d"/>
            </g>
            <g id="Grupo_561" data-name="Grupo 561" transform="translate(45.614 11.973)">
              <path id="Caminho_438" data-name="Caminho 438" d="M1399.181,329.482s-15.413,13.285-25.9,14.354-14.453-2.293-14.453-2.293a40.91,40.91,0,0,0,9.9-13.414,7.365,7.365,0,0,1,6.078-4.347C1382.291,323.141,1396.481,322.847,1399.181,329.482Z" transform="translate(-1358.83 -323.468)" fill="#233862"/>
            </g>
            <g id="Grupo_562" data-name="Grupo 562" transform="translate(76.326 13.918)">
              <path id="Caminho_439" data-name="Caminho 439" d="M1420.58,330.259s5.158,4.989,6.779,8.684c1.567,3.571,2.039,12.106.791,15.493,0,0,8.032-15.622,3.487-23.212C1426.812,323.177,1420.58,330.259,1420.58,330.259Z" transform="translate(-1420.58 -327.379)" fill="#233862"/>
            </g>
            <g id="Grupo_563" data-name="Grupo 563" transform="translate(25.334 59.143)">
              <path id="Caminho_440" data-name="Caminho 440" d="M1382.67,465.186c1.845,43.465-1.074,41.068-5.531,43.186a28.536,28.536,0,0,1-9.649,2.094c-14.946.99-41.222-1.472-42.221-4.233-3.447-9.559-1.015-12.529-3.889-27.161-.3-1.557-.671-3.243-1.1-5.073-2.4-10.052-4.735-13.469,3.775-29.613,7.714-14.628,15.732-26.495,16.453-26.067,20.357,12.086,22,1.93,22,1.93S1381.666,441.431,1382.67,465.186Z" transform="translate(-1318.055 -418.307)" fill="#aec3ff"/>
            </g>
            <g id="Grupo_565" data-name="Grupo 565" transform="translate(110.117 197.974)">
              <g id="Grupo_564" data-name="Grupo 564">
                <path id="Caminho_441" data-name="Caminho 441" d="M1520.526,731.176l-15.647,42.117a25.412,25.412,0,0,1-8.316-.761,36.142,36.142,0,0,1-8.042-3.914s4.347-45.221,12.454-71.178Z" transform="translate(-1488.52 -697.44)" fill="#00a4ff"/>
              </g>
            </g>
            <g id="Grupo_566" data-name="Grupo 566" transform="translate(69.781 61.074)">
              <path id="Caminho_442" data-name="Caminho 442" d="M1407.42,422.19s20.949,3.551,23.406,12.568,16.935,62.037,16.935,62.037-10.649,1.915-15.568-3-17.119-45.638-17.119-45.638Z" transform="translate(-1407.42 -422.19)" fill="#aec3ff"/>
            </g>
            <g id="Grupo_567" data-name="Grupo 567" transform="translate(28.659 99.605)">
              <path id="Caminho_443" data-name="Caminho 443" d="M1370.851,551.351c-14.946.99-41.222-1.472-42.221-4.233-3.447-9.559-1.015-12.529-3.889-27.161l7.212-20.3s-1.194,22.605,5.476,28.554,27.3,11.479,30.538,16.443A18.266,18.266,0,0,1,1370.851,551.351Z" transform="translate(-1324.74 -499.66)" fill="#94b0ed"/>
            </g>
            <g id="Grupo_568" data-name="Grupo 568" transform="translate(57.645 139.509)">
              <path id="Caminho_444" data-name="Caminho 444" d="M1383.02,582.173s14.747-3.283,17.124-1.974,8.2,6.073,8.923,7.734-5.3-1.258-7.257-1.786c-1.268-.338-4.611.821-6.262,1.373-6.958,2.318-11.225,1.129-11.225,1.129Z" transform="translate(-1383.02 -579.891)" fill="#ffb27d"/>
            </g>
            <g id="Grupo_569" data-name="Grupo 569" transform="translate(0 59.139)">
              <path id="Caminho_445" data-name="Caminho 445" d="M1314.887,418.3s-19.8,1.219-26.654,10.778c-9.649,13.459-28.788,70.81-17.821,78.46,12.355,8.614,56.222,2.253,56.222,2.253s1.462-6.824-.572-10.126-35.039-8.634-36.561-10.156,19.044-29.708,19.044-34.279S1314.887,418.3,1314.887,418.3Z" transform="translate(-1267.119 -418.3)" fill="#aec3ff"/>
            </g>
            <g id="Grupo_570" data-name="Grupo 570" transform="translate(75.481 143.92)">
              <path id="Caminho_446" data-name="Caminho 446" d="M1418.88,588.76s3.089,3.984,4.1,4.461a3.011,3.011,0,0,0,1.666.358l-2.084-3.745Z" transform="translate(-1418.88 -588.76)" fill="#ffb27d"/>
            </g>
            <g id="Grupo_571" data-name="Grupo 571" transform="translate(74.77 139.817)">
              <path id="Caminho_447" data-name="Caminho 447" d="M1417.45,580.51l8.982,4.362a1.6,1.6,0,0,1-1.487.577,21.4,21.4,0,0,1-3.894-1.069Z" transform="translate(-1417.45 -580.51)" fill="#ffb27d"/>
            </g>
          </g>
          <g id="Grupo_577" data-name="Grupo 577" transform="translate(57.645 101.331)">
            <g id="Grupo_575" data-name="Grupo 575">
              <g id="Grupo_573" data-name="Grupo 573" transform="translate(21.939)">
                <path id="Caminho_448" data-name="Caminho 448" d="M1427.13,556.284h71.059l21.377-53.154h-70.949Z" transform="translate(-1427.13 -503.13)" fill="#2b478b"/>
              </g>
              <g id="Grupo_574" data-name="Grupo 574" transform="translate(0 51.085)">
                <path id="Caminho_449" data-name="Caminho 449" d="M1476.853,605.84H1383.02v2.069h93Z" transform="translate(-1383.02 -605.84)" fill="#2b478b"/>
              </g>
            </g>
            <g id="Grupo_576" data-name="Grupo 576" transform="translate(68.16 23.197)">
              <path id="Caminho_450" data-name="Caminho 450" d="M1526.965,553.152a2.461,2.461,0,0,0-2.412-3.382,4.855,4.855,0,0,0-4.352,3.382,2.459,2.459,0,0,0,2.412,3.382A4.843,4.843,0,0,0,1526.965,553.152Z" transform="translate(-1520.063 -549.77)" fill="#ebf3fa"/>
            </g>
          </g>
        </g>
      </g>
      <g id="Grupo_580" data-name="Grupo 580" transform="translate(0 835.37)">
        <path id="Caminho_451" data-name="Caminho 451" d="M1515.619,1835.478H442.918a1.3,1.3,0,0,1-1.288-1.288v-.612a1.3,1.3,0,0,1,1.288-1.288h1072.7a1.3,1.3,0,0,1,1.288,1.288v.612A1.284,1.284,0,0,1,1515.619,1835.478Z" transform="translate(-441.63 -1832.29)" fill="#2e3552"/>
      </g>
    </g>
  </g>
</svg>
