<svg xmlns="http://www.w3.org/2000/svg" xmlns:xlink="http://www.w3.org/1999/xlink" width="51" height="50" viewBox="0 0 51 50">
  <defs>
    <linearGradient id="linear-gradient" y1="0.5" x2="1" y2="0.5" gradientUnits="objectBoundingBox">
      <stop offset="0" stop-color="#008cff"/>
      <stop offset="1" stop-color="#00c8ff"/>
    </linearGradient>
    <linearGradient id="linear-gradient-2" y1="0.5" x2="1" y2="0.5" gradientUnits="objectBoundingBox">
      <stop offset="0" stop-color="#ff836a"/>
      <stop offset="1" stop-color="#eb3c7d"/>
    </linearGradient>
  </defs>
  <g id="Grupo_1120" data-name="Grupo 1120" transform="translate(-62 -624)">
    <rect id="Ret창ngulo_345" data-name="Ret창ngulo 345" width="51" height="50" rx="25" transform="translate(62 624)" fill="url(#linear-gradient)"/>
    <g id="Grupo_697" data-name="Grupo 697" transform="translate(70.833 632.333)">
      <path id="Caminho_793" data-name="Caminho 793" d="M899.917,463.031l-.74.74-1.037-1.036a.81.81,0,1,0-1.146,1.145l1.037,1.037-.633.633-1.037-1.037a.81.81,0,1,0-1.145,1.146l1.036,1.037-.633.633-1.037-1.037a.81.81,0,1,0-1.145,1.145l1.037,1.037-.634.634-1.037-1.037a.81.81,0,1,0-1.145,1.145l1.036,1.037-1.2,1.2-4.255-4.255,8.425-8.425a.435.435,0,0,1,.6,0l3.655,3.655a.425.425,0,0,1,0,.6Zm.857-2.034.462-.461a1.27,1.27,0,0,0,0-1.794l-.3-.3,4.934-4.934a.486.486,0,1,0-.687-.687l-4.934,4.934-.3-.3a1.27,1.27,0,0,0-1.794,0l-.461.461-.289-.288a2.043,2.043,0,0,0-2.891,0l-8.438,8.438a1.434,1.434,0,0,0-1.9.119,1.449,1.449,0,0,0,0,2.046l1.741,1.741-10.694,10.694-1.161-1.16a.81.81,0,0,0-1.145,1.145l5.122,5.122a.81.81,0,0,0,1.145-1.145l-1.16-1.16,10.694-10.694,1.741,1.741a1.443,1.443,0,0,0,2.165-1.9l5.345-5.345h0l1.777-1.777h0l1.312-1.312a2.046,2.046,0,0,0,0-2.891l-.288-.288Z" transform="translate(-872.68 -452.68)" fill="#fff"/>
      <path id="Caminho_794" data-name="Caminho 794" d="M936.437,527.631a14.879,14.879,0,0,0-.764-4.136l-2.566,2.765a6.444,6.444,0,0,1,.22,1.371,10.271,10.271,0,0,1-10.26,10.26,11.77,11.77,0,0,1-4.645-.953l-2.259,2.334a14.584,14.584,0,0,0,6.9,1.729A13.385,13.385,0,0,0,936.437,527.631Z" transform="translate(-907.864 -509.979)" fill="#fff"/>
      <path id="Caminho_795" data-name="Caminho 795" d="M884.553,495.929l2.228-2.3a10.252,10.252,0,0,1,8.872-15.4,13.388,13.388,0,0,1,2.439.314l2.552-2.486a15.091,15.091,0,0,0-4.992-.937,13.364,13.364,0,0,0-11.1,20.814Z" transform="translate(-880.451 -470.833)" fill="#fff"/>
    </g>
    <rect id="Ret창ngulo_346" data-name="Ret창ngulo 346" width="51" height="50" rx="25" transform="translate(62 624)" fill="url(#linear-gradient-2)"/>
    <g id="Grupo_697-2" data-name="Grupo 697" transform="translate(70.834 632.333)">
      <path id="Caminho_793-2" data-name="Caminho 793" d="M899.917,463.031l-.74.74-1.037-1.036a.81.81,0,1,0-1.146,1.145l1.037,1.037-.633.633-1.037-1.037a.81.81,0,1,0-1.145,1.146l1.036,1.037-.633.633-1.037-1.037a.81.81,0,1,0-1.145,1.145l1.037,1.037-.634.634-1.037-1.037a.81.81,0,1,0-1.145,1.145l1.036,1.037-1.2,1.2-4.255-4.255,8.425-8.425a.435.435,0,0,1,.6,0l3.655,3.655a.425.425,0,0,1,0,.6Zm.857-2.034.462-.461a1.27,1.27,0,0,0,0-1.794l-.3-.3,4.934-4.934a.486.486,0,1,0-.687-.687l-4.934,4.934-.3-.3a1.27,1.27,0,0,0-1.794,0l-.461.461-.289-.288a2.043,2.043,0,0,0-2.891,0l-8.438,8.438a1.434,1.434,0,0,0-1.9.119,1.449,1.449,0,0,0,0,2.046l1.741,1.741-10.694,10.694-1.161-1.16a.81.81,0,0,0-1.145,1.145l5.122,5.122a.81.81,0,0,0,1.145-1.145l-1.16-1.16,10.694-10.694,1.741,1.741a1.443,1.443,0,0,0,2.165-1.9l5.345-5.345h0l1.777-1.777h0l1.312-1.312a2.046,2.046,0,0,0,0-2.891l-.288-.288Z" transform="translate(-872.68 -452.68)" fill="#fff"/>
      <path id="Caminho_794-2" data-name="Caminho 794" d="M936.437,527.631a14.879,14.879,0,0,0-.764-4.136l-2.566,2.765a6.444,6.444,0,0,1,.22,1.371,10.271,10.271,0,0,1-10.26,10.26,11.77,11.77,0,0,1-4.645-.953l-2.259,2.334a14.584,14.584,0,0,0,6.9,1.729A13.385,13.385,0,0,0,936.437,527.631Z" transform="translate(-907.864 -509.979)" fill="#fff"/>
      <path id="Caminho_795-2" data-name="Caminho 795" d="M884.553,495.929l2.228-2.3a10.252,10.252,0,0,1,8.872-15.4,13.388,13.388,0,0,1,2.439.314l2.552-2.486a15.091,15.091,0,0,0-4.992-.937,13.364,13.364,0,0,0-11.1,20.814Z" transform="translate(-880.451 -470.833)" fill="#fff"/>
    </g>
  </g>
</svg>
