<svg xmlns="http://www.w3.org/2000/svg" width="1088.423" height="848.813" viewBox="0 0 1088.423 848.813">
  <g id="_11136" data-name="11136" transform="translate(-242.791 -126.18)">
    <g id="Grupo_227" data-name="Grupo 227" transform="translate(242.791 126.18)">
      <g id="Grupo_66" data-name="Grupo 66" transform="translate(16.987 0)">
        <path id="Caminho_21" data-name="Caminho 21" d="M538.931,999.907s-147.123-189.876,6.3-355.184C715.758,461,554.644,255.446,724.548,182.27c239.587-103.192,282.531,100.911,550.834,50.315,224.045-42.249,219.288,287.862,153.074,405.67-54.9,97.679,156.689,146.091,48.387,361.21Z" transform="translate(-475.372 -152.705)" fill="#ebf3fa"/>
      </g>
      <g id="Grupo_69" data-name="Grupo 69" transform="translate(633.608 189.224)">
        <g id="Grupo_67" data-name="Grupo 67" transform="translate(3.528 22.163)" opacity="0.3">
          <path id="Caminho_22" data-name="Caminho 22" d="M1707.17,700.719s23.239-113.07,112.269-128.012c0,0,17.329-2.638,23.677,16.342s-28.228,20.123-49.378,28.445S1723.7,659.919,1707.17,700.719Z" transform="translate(-1707.17 -572.582)" fill="#aec3ff"/>
        </g>
        <g id="Grupo_68" data-name="Grupo 68" opacity="0.3">
          <path id="Caminho_23" data-name="Caminho 23" d="M1701.047,657.906s-11.987-92.756,52.283-127.66c0,0,12.581-6.59,22.444,6.283s-16.327,22.857-30.338,34.8S1702.965,622.287,1701.047,657.906Z" transform="translate(-1700.163 -528.56)" fill="#aec3ff"/>
        </g>
      </g>
      <g id="Grupo_70" data-name="Grupo 70" transform="translate(269.215 264.375)">
        <path id="Caminho_24" data-name="Caminho 24" d="M980.61,698.1c10.9-31.023,63.586-17.2,63.586-17.2s32.191,58.063,42.642,60.157-17.827-55.017-17.827-55.017c20.586-.473,70.835,28.42,70.835,28.42s-8.055,64.381,2.593,63.837,4.224-57.368,4.224-57.368c19.348,7.391,36.112,31.828,36.112,31.828,20.314,39.284-31.184,63.339-31.184,63.339s-2.311,22.373,9.646,49.107h0a76.632,76.632,0,0,1,5.357,13.281l-5.392-.4q-.5-2.22-1.153-4.294c0-.01,0-.02-.01-.025-.005-.02-.015-.04-.02-.06-.307-.861-.75-2.084-1.309-3.58v-.005a0,0,0,0,0-.005,0c-1.41-3.348-2.346-5.81-2.925-7.582,0-.005-.005-.01-.005-.015-4.194-10.487-10.331-24.206-14.872-27.322a10.37,10.37,0,0,0,1.334-2.391q-.642,1.14-1.334,2.391c-10.688,19.1-57.091,19-82.42,11.831s-13.583-13.6,1.128-24.352,43.5-5.513,52.414-9.5-3.277-9.525-20.521-9.465-27.076,16.569-54.967,17.168-45.154-53.048-45.154-53.048c18.688,7.34,53.753-.685,55.556-7.179s-49.021-9.576-56.789-12.138S969.7,729.117,980.61,698.1Z" transform="translate(-976.371 -677.832)" fill="#cde0fb"/>
      </g>
      <g id="Grupo_71" data-name="Grupo 71" transform="translate(188.522 634.635)">
        <path id="Caminho_25" data-name="Caminho 25" d="M820.279,1550.872c-19.1-33.313,33.328-69.33,33.328-69.33s75.89,15.859,85.722,8.216-62.236-26.225-62.236-26.225c15.295-18.562,79.182-40.925,79.182-40.925s50.763,56.255,58.41,46.428-47.49-47.516-47.49-47.516c21.3-11.459,55.7-7.627,55.7-7.627,50.229,12.027,32.19,75.905,32.19,75.905s18.013,19.116,50.768,28.953h0a89.049,89.049,0,0,1,15.828,5.4l-4.466,4.466q-2.341-1.254-4.677-2.255c-.01-.01-.015-.01-.03-.01l-.065-.03c-1-.383-2.417-.926-4.164-1.576h-.015c-4.032-1.309-6.927-2.361-8.936-3.2-.005,0-.01-.005-.02-.01-12.47-4.3-29.281-9.339-35.5-7.7a12.293,12.293,0,0,0-1.093-3.006q.521,1.435,1.093,3.006c8.73,24.025-26.774,64.965-52.439,81.886s-22.388,1.631-20.662-19.584,28.324-42.662,31.6-53.577-10.92-4.37-24.03,10.915-6.016,36.581-26.774,61.693-81.352-.569-81.352-.569c20.752-10.915,40.417-48.039,36.052-54.589s-45.874,36.022-54.065,40.936C863.949,1585.831,839.38,1584.185,820.279,1550.872Z" transform="translate(-816.091 -1413.278)" fill="#afcdfb"/>
      </g>
      <g id="Grupo_72" data-name="Grupo 72" transform="translate(689.338 293.223)" opacity="0.5">
        <path id="Caminho_26" data-name="Caminho 26" d="M2045.669,769.96c-3.705-34.527-61.2-33.056-61.2-33.056s-47.133,51.9-58.385,51.523,31.632-52.238,31.632-52.238c-21.049-5.467-79.691,12.083-79.691,12.083s-7.29,68.127-18.1,65,9.535-59.991,9.535-59.991c-21.674,2.92-44.817,23.984-44.817,23.984-30.383,35.468,16.735,72.653,16.735,72.653s-3.036,23.556-21.789,48.145h0a80.618,80.618,0,0,0-8.72,12.36l5.639.9q1.05-2.16,2.225-4.133a.028.028,0,0,1,.015-.025.561.561,0,0,1,.035-.055c.524-.811,1.279-1.963,2.21-3.363a78340684.519,78340684.519,0,0,1,.01-.01c2.26-3.1,3.821-5.407,4.843-7.089.005-.005.005-.01.01-.015,6.847-9.767,16.478-22.383,21.9-24.488a11.109,11.109,0,0,1-.8-2.779c.252.886.518,1.807.8,2.779,6.369,22.222,54.091,33.338,81.861,32.1s17.253-10.693,4.727-25.3-43.382-16.191-51.578-22.439,5.674-9,23.38-4.768,23.823,23.582,52.349,30.942,59.246-43.609,59.246-43.609c-20.984,3.031-55.087-13.7-55.374-20.818s52.706,2.014,61.31,1.259S2049.374,804.487,2045.669,769.96Z" transform="translate(-1810.86 -735.133)" fill="#afcdfb"/>
      </g>
      <g id="Grupo_73" data-name="Grupo 73" transform="translate(604.98 490.792)" opacity="0.2">
        <path id="Caminho_27" data-name="Caminho 27" d="M1992.669,1384.8c38.091-31.259-8.388-98.354-8.388-98.354s-98.263-15.557-106.57-29.2,86.609-3.106,86.609-3.106c-9.888-29.23-76.338-85.174-76.338-85.174s-86.523,44.354-91.22,29.079,78.619-35.362,78.619-35.362c-20.329-23.451-63.334-34.527-63.334-34.527-65.735-8.458-73.2,76.388-73.2,76.388s-30.318,14.726-74.093,11.6h0a114.83,114.83,0,0,0-21.452-.735l3.323,7.391c2.255-.287,4.471-.483,6.64-.574a.056.056,0,0,1,.04,0,.646.646,0,0,0,.1-.005c1.369,0,3.323-.01,5.709.005h.02c5.437.272,9.389.327,12.178.232h.025c16.921.524,39.38,2.14,46.1,6.932a15.629,15.629,0,0,1,2.678-3.106c-.856.992-1.742,2.024-2.678,3.106-21.417,24.845,2.517,90.133,25.6,122.122s26.114,12.158,33.706-14.076-14.54-64.079-13.5-78.674,15.088-.267,23.854,24.04-9.45,46.625,4.007,86.2,97.851,36.384,97.851,36.384c-19.921-22.55-26.6-76.041-18.376-81.911s38.62,64.114,46.207,73.74S1954.578,1416.058,1992.669,1384.8Z" transform="translate(-1643.3 -1127.563)" fill="#afcdfb"/>
      </g>
      <g id="Grupo_97" data-name="Grupo 97" transform="translate(139.705 417.31)">
        <g id="man_2_">
          <g id="Grupo_74" data-name="Grupo 74" transform="translate(208.999 85.076)">
            <path id="Caminho_28" data-name="Caminho 28" d="M1154.383,1161.707c-1.807,4.863-4.944,10.507-8.231,11.907a12.749,12.749,0,0,0-5.286,3.836l-3.011-1.747-3.594-2.089s.086-.4.262-1.047.443-1.551.805-2.548a3.488,3.488,0,0,0,.428-3.2,7.436,7.436,0,0,1,.614-6.208c1.153-1.677,2.266-5.8,2.96-5.684,1.682.287-.826,5.966-.106,7.018a1.246,1.246,0,0,0,1.616.554l.03-.015c4.717-2.074,10.441-13.261,12.974-11.75C1154.786,1151.3,1155.153,1159.638,1154.383,1161.707Z" transform="translate(-1134.26 -1150.592)" fill="#ffb27d"/>
          </g>
          <g id="Grupo_77" data-name="Grupo 77" transform="translate(212.407 79.733)">
            <g id="Grupo_75" data-name="Grupo 75">
              <path id="Caminho_29" data-name="Caminho 29" d="M1141.422,1163.208l5.91,4.153a.934.934,0,0,0,1.294-.226l15.144-21.543a.934.934,0,0,0-.226-1.294l-5.911-4.153a.934.934,0,0,0-1.294.227l-15.144,21.543A.933.933,0,0,0,1141.422,1163.208Z" transform="translate(-1141.028 -1139.979)" fill="#2b478b"/>
            </g>
            <g id="Grupo_76" data-name="Grupo 76" transform="translate(5.502 3.846)">
              <path id="Caminho_30" data-name="Caminho 30" d="M1152.256,1170.8l3.464,2.437a.707.707,0,0,0,.982-.171l15.4-21.905a.708.708,0,0,0-.171-.982l-3.464-2.437a.707.707,0,0,0-.982.171l-15.4,21.91A.7.7,0,0,0,1152.256,1170.8Z" transform="translate(-1151.958 -1147.618)" fill="#233862"/>
            </g>
          </g>
          <g id="Grupo_78" data-name="Grupo 78" transform="translate(111.637 72.046)">
            <path id="Caminho_31" data-name="Caminho 31" d="M957.237,1124.71s30.076,52.459,40.986,62.111l40.009-29.829a14.611,14.611,0,0,1,8.347,7.607s-24.3,49.5-48.215,51.6-57.494-59.331-57.494-59.331Z" transform="translate(-940.87 -1124.71)" fill="#94b0ed"/>
          </g>
          <g id="Grupo_84" data-name="Grupo 84" transform="translate(29.153 193.272)">
            <g id="Grupo_79" data-name="Grupo 79" transform="translate(0 200.302)">
              <path id="Caminho_32" data-name="Caminho 32" d="M807.822,1798.632H790.443c-2.19-1.188-4.138-3.907-4.753-7.964-.851-5.6-7.124-8.649-8.483-13.231s5.6-11.02,5.6-11.02l1.163-1.5,1.208-1.556,11.534,2.714s.287,2.749.458,6.248a79.947,79.947,0,0,1,.05,8c-.337,6.107,1.707,12.682,7.134,13.87C808.366,1795.067,808.19,1797.449,807.822,1798.632Z" transform="translate(-777.032 -1763.36)" fill="#233862"/>
            </g>
            <g id="Grupo_80" data-name="Grupo 80" transform="translate(90.611 215.253)">
              <path id="Caminho_33" data-name="Caminho 33" d="M998.043,1813.377H958.3c-1.913-2.331-1.208-10.94-.916-13.749.06-.564.1-.9.1-.9s13.573-10.854,15.436-2.542c.055.262.126.514.2.765,2.346,7.773,12.883,11.307,18.965,12.289C996.039,1809.888,997.5,1811.942,998.043,1813.377Z" transform="translate(-957.014 -1793.056)" fill="#233862"/>
            </g>
            <g id="Grupo_81" data-name="Grupo 81" transform="translate(66.499 10.175)">
              <path id="Caminho_34" data-name="Caminho 34" d="M966.689,1389.275s-2.059,25.711-4.481,56.613c-3.292,41.983-7.25,93.551-7.642,103.318-.675,16.961-3.393,44.1-3.393,44.1s-6.439,6.444-19.333,3.731c0,0-11.489-38.735-14.771-79.721-.05-.67-.1-1.349-.151-2.024-3.051-41.721-7.8-129.578-7.8-129.578Z" transform="translate(-909.12 -1385.71)" fill="#ef7a65"/>
            </g>
            <g id="Grupo_82" data-name="Grupo 82" transform="translate(66.499 10.175)">
              <path id="Caminho_35" data-name="Caminho 35" d="M966.689,1389.275s-2.059,25.711-4.481,56.613l-45.139,71.424c-.05-.67-.1-1.349-.151-2.024-3.051-41.721-7.8-129.578-7.8-129.578Z" transform="translate(-909.12 -1385.71)" fill="#a75547"/>
            </g>
            <g id="Grupo_83" data-name="Grupo 83" transform="translate(5.773)">
              <path id="Caminho_36" data-name="Caminho 36" d="M897.386,1382.3s-37.145,93.113-61.567,136.868-32.055,55.969-32.055,55.969-13.991-5.6-15.265-9.414c0,0,9.339-84.474,25.7-105.07,9.243-11.635,20.1-46.554,20.606-58.768s3.308-36.379,3.308-36.379Z" transform="translate(-788.5 -1365.5)" fill="#ef7a65"/>
            </g>
          </g>
          <g id="Grupo_85" data-name="Grupo 85" transform="translate(94.937 35.621)">
            <path id="Caminho_37" data-name="Caminho 37" d="M947.326,1091.065c-14.514,4.581-39.627-7.778-39.627-7.778s13.382-10.044,12.682-30.927L931.6,1061.4l7.622,6.142a90.826,90.826,0,0,1-.866,9.968c-.221,1.671,1.661,5.352,3.3,7.421C946.058,1090.516,947.326,1091.065,947.326,1091.065Z" transform="translate(-907.7 -1052.36)" fill="#ffb27d"/>
          </g>
          <g id="Grupo_86" data-name="Grupo 86" transform="translate(107.569 44.443)">
            <path id="Caminho_38" data-name="Caminho 38" d="M951.685,1076.245a90.855,90.855,0,0,1-.866,9.968c-8.448-1.45-18.029-15.1-18.029-15.1a26.842,26.842,0,0,1,11.272-1.007Z" transform="translate(-932.79 -1069.883)" fill="#ed975d"/>
          </g>
          <g id="Grupo_87" data-name="Grupo 87" transform="translate(102.227 10.801)">
            <path id="Caminho_39" data-name="Caminho 39" d="M950.856,1042.721s-23.974,3.982-26.225-10.985-6.862-24.533,8.352-27.71,19.051,2.089,21.019,6.9S957.034,1041.3,950.856,1042.721Z" transform="translate(-922.18 -1003.06)" fill="#ffb27d"/>
          </g>
          <g id="Grupo_88" data-name="Grupo 88" transform="translate(81.701 60.77)">
            <path id="Caminho_40" data-name="Caminho 40" d="M954.53,1250.7a2.354,2.354,0,0,1-1.525.579c-5.452-.075-21.346,2.955-34.793,1.571-11.338-1.087-21.371-4.446-32.15-9.279-1.43-.639-4.722-2.4-4.652-4,.05-1.752.222-4.289.443-7.491a399.771,399.771,0,0,0,.8-52.329c-.232-4.108-.357-8.186-.373-12.2-.111-29.915,5.82-56.225,17.742-65.131,1.017-.73,7.27,2.326,13.009,5.16a23.789,23.789,0,0,0,15.627,1.893l5.014,4.43c6.107,5.669,12.793,13.376,15.7,25.077,2.472,9.958,3.927,27.911,4.722,46.519.362,8.433.654,16.936.73,25.007v.287c.07.8.07,1.677.07,2.472C955.184,1233.979,954.892,1250.4,954.53,1250.7Z" transform="translate(-881.408 -1102.313)" fill="#aec3ff"/>
          </g>
          <g id="Grupo_89" data-name="Grupo 89" transform="translate(82.145 105.228)">
            <path id="Caminho_41" data-name="Caminho 41" d="M882.29,1275.929a399.75,399.75,0,0,0,.8-52.329c-.232-4.108-.357-8.186-.372-12.2,4.964-12.047,9.022-20.782,9.022-20.782H904.25C904.255,1190.625,913.428,1253.294,882.29,1275.929Z" transform="translate(-882.29 -1190.62)" fill="#94b0ed"/>
          </g>
          <g id="Grupo_92" data-name="Grupo 92" transform="translate(0 206.107)">
            <g id="Grupo_90" data-name="Grupo 90" transform="translate(7.078 6.942)">
              <path id="Caminho_42" data-name="Caminho 42" d="M744.143,1453.305l53.376,7.607a12.789,12.789,0,0,0,14.429-10.829l3.3-23.133a12.789,12.789,0,0,0-10.829-14.429l-53.376-7.607a12.789,12.789,0,0,0-14.429,10.829l-3.3,23.134A12.794,12.794,0,0,0,744.143,1453.305Z" transform="translate(-733.185 -1404.785)" fill="#233862"/>
            </g>
            <g id="Grupo_91" data-name="Grupo 91">
              <path id="Caminho_43" data-name="Caminho 43" d="M800.45,1412.566h0a12.858,12.858,0,0,0-8.841-7.728H791.6c-.005,0-.005,0-.01-.005a12.132,12.132,0,0,0-1.233-.237l-10.628-1.51.71-4.994a4.227,4.227,0,0,0-3.59-4.778l-2.774-.4-11.161-1.591-2.014-.287a4.228,4.228,0,0,0-4.778,3.585l-.71,4.994L737.071,1397a12.845,12.845,0,0,0-14.484,10.869l-3.333,23.4a12.845,12.845,0,0,0,10.869,14.484l53.28,7.6a12.3,12.3,0,0,0,2.779.086h.01a12.518,12.518,0,0,0,4.158-1.052,12.819,12.819,0,0,0,7.537-9.913l3.333-23.4A12.561,12.561,0,0,0,800.45,1412.566Zm-41.7-17.56a1.582,1.582,0,0,1,1.309-1.334,1.489,1.489,0,0,1,.473-.005l2.371.337,8.785,1.254,4.788.685a1.581,1.581,0,0,1,1.339,1.782l-.71,4.994L758.045,1400Z" transform="translate(-719.126 -1390.996)" fill="#2b478b"/>
            </g>
          </g>
          <g id="Grupo_93" data-name="Grupo 93" transform="translate(42.416 189.038)">
            <path id="Caminho_44" data-name="Caminho 44" d="M819.585,1360.745s-2.8,3.736-2.915,5.226c-.755,10.114,3.867,11.509-8.1,17.127,0,0-5.1,1.948-5.2-2.019s3.544-4.028,2.88-9.581c-.765-6.4-.69-6.464,3.514-9.807l2.784-4.6Z" transform="translate(-803.377 -1357.09)" fill="#ffb27d"/>
          </g>
          <g id="Grupo_94" data-name="Grupo 94" transform="translate(45.302 62.873)">
            <path id="Caminho_45" data-name="Caminho 45" d="M815.3,1239.174a40.9,40.9,0,0,0,9.394.524s13.382-41.333,15.1-45.109,39.742-48.462,39.742-48.462L863.7,1106.49s-41.122,68.691-45.3,78.342c-6.9,15.949-9.294,51.709-9.294,51.709A17.2,17.2,0,0,0,815.3,1239.174Z" transform="translate(-809.11 -1106.49)" fill="#aec3ff"/>
          </g>
          <g id="Grupo_95" data-name="Grupo 95" transform="translate(98.823)">
            <path id="Caminho_46" data-name="Caminho 46" d="M921.254,1019.643s2.462-.413,2.064-3.8-.393-7.819,2.361-6.993,2.89,3.031,4.023,1.742,1.153-6.716,9.349-7.094,11.529,2.477,15.34.8,4.013-7.446,4.013-7.446a6.538,6.538,0,0,1-2.724,2.714s6.359-8.7-1-14.665-14.872-2.059-19.136-1.8c-9.389.569-15.456,1.133-18.522,7.3S915.227,1013.7,921.254,1019.643Z" transform="translate(-915.417 -981.605)" fill="#2b478b"/>
          </g>
          <g id="Grupo_96" data-name="Grupo 96" transform="translate(53.962 197.138)">
            <path id="Caminho_47" data-name="Caminho 47" d="M826.552,1373.18s2.7,2.814,2.87,3.982c.549,3.756,1.8,5.382,1.173,5.79-1.309.851-3.036-1.933-3.861-4.43A11.353,11.353,0,0,1,826.552,1373.18Z" transform="translate(-826.31 -1373.18)" fill="#ffb27d"/>
          </g>
        </g>
      </g>
      <g id="Grupo_101" data-name="Grupo 101" transform="translate(397.831 280.605)">
        <g id="Grupo_99" data-name="Grupo 99" transform="translate(3.72 3.72)">
          <g id="Grupo_98" data-name="Grupo 98">
            <path id="Caminho_48" data-name="Caminho 48" d="M1529.338,1275h-260.47a29.64,29.64,0,0,1-29.638-29.638V747.1a29.64,29.64,0,0,1,29.638-29.638h260.465a29.64,29.64,0,0,1,29.638,29.638v498.264A29.636,29.636,0,0,1,1529.338,1275Z" transform="translate(-1239.23 -717.46)" fill="#fff"/>
          </g>
        </g>
        <g id="Grupo_100" data-name="Grupo 100">
          <path id="Caminho_49" data-name="Caminho 49" d="M1525.668,1275.051H1265.2a33.4,33.4,0,0,1-33.359-33.359V743.429A33.4,33.4,0,0,1,1265.2,710.07h260.47a33.393,33.393,0,0,1,33.354,33.359v498.264A33.393,33.393,0,0,1,1525.668,1275.051ZM1265.2,717.511a25.948,25.948,0,0,0-25.918,25.918v498.264a25.944,25.944,0,0,0,25.918,25.917h260.47a25.948,25.948,0,0,0,25.918-25.917V743.429a25.948,25.948,0,0,0-25.918-25.918H1265.2Z" transform="translate(-1231.84 -710.07)" fill="#2b478b"/>
        </g>
      </g>
      <g id="girl_2_3_" transform="translate(678.797 621.288)">
        <g id="Grupo_102" data-name="Grupo 102" transform="translate(0.867)">
          <path id="Caminho_50" data-name="Caminho 50" d="M1831.1,1387.781a27.587,27.587,0,0,1,27.493,7.849c16.926,18.386,4.445,32.558,12.918,45.426,5.12,7.773,9.42,21.392-6.439,29.447-7.33,3.726-29.175,23.189-33.646,23.647-45.326,4.657-46.141-41.328-30.861-54.655C1822.031,1420.772,1802.411,1396.148,1831.1,1387.781Z" transform="translate(-1791.645 -1386.767)" fill="#233862"/>
        </g>
        <g id="Grupo_103" data-name="Grupo 103" transform="translate(54.847 72.1)">
          <path id="Caminho_51" data-name="Caminho 51" d="M1908.025,1529.98s41.363,20.037,49.111,19.7,56.18-17.394,56.18-17.394l-1.213,8.211s-36.847,21.19-49.726,22.393c-12.682,1.183-56.049-11.383-60.233-14.036S1895.857,1532.668,1908.025,1529.98Z" transform="translate(-1898.865 -1529.98)" fill="#ed985f"/>
        </g>
        <g id="Grupo_104" data-name="Grupo 104" transform="translate(20.429 46.233)">
          <path id="Caminho_52" data-name="Caminho 52" d="M1878.63,1523.372a40.976,40.976,0,0,1-14.349,6.107c-22.121,5.11-30.6-13.583-33.781-26.416a19,19,0,0,1,7.5-2.3c1.6-.186,3.283-.312,4.672-.383,2.482-1.9,6.187-9.686,7-21.779l1.042.277,17.434,4.773s-.8,5.543-1.188,10.779c-.3,4.1-.352,8.015.428,8.976,1.359.3,2.175.488,2.175.488s0,.005.01.015A112.893,112.893,0,0,1,1878.63,1523.372Z" transform="translate(-1830.5 -1478.6)" fill="#ffb27d"/>
        </g>
        <g id="Grupo_105" data-name="Grupo 105" transform="translate(40.637 46.51)">
          <path id="Caminho_53" data-name="Caminho 53" d="M1888.074,1483.923s-.8,5.538-1.188,10.779c-9.878-.987-14.459-10.391-16.246-15.552Z" transform="translate(-1870.64 -1479.15)" fill="#ed985f"/>
        </g>
        <g id="Grupo_106" data-name="Grupo 106" transform="translate(38.575 16.234)">
          <path id="Caminho_54" data-name="Caminho 54" d="M1888.991,1459.262s-23.446-1.294-22.414-15.879-1.3-24.578,13.709-24.367,17.525,5.981,18.366,10.935S1895.118,1459.227,1888.991,1459.262Z" transform="translate(-1866.544 -1419.013)" fill="#ffb27d"/>
        </g>
        <g id="Grupo_107" data-name="Grupo 107" transform="translate(31.248 13.228)">
          <path id="Caminho_55" data-name="Caminho 55" d="M1891.309,1418.825c-3.3-4.647-6.107-3.881-7.738-2.673-12.294-7.955-21.286,1.858-21.286,1.858a27.942,27.942,0,0,1-10.3,15.808s4.153,3.323,14.1,1.118c12.722-2.819,17.092-13.855,17.686-15.547,1.339,1.385,3.066,2.266,4.39,5.276a23.106,23.106,0,0,1,2.593,11.509S1896.268,1425.793,1891.309,1418.825Z" transform="translate(-1851.99 -1413.041)" fill="#233862"/>
        </g>
        <g id="Grupo_108" data-name="Grupo 108" transform="translate(0.786 65.552)">
          <path id="Caminho_56" data-name="Caminho 56" d="M1804.446,1590.088c-2.119-10.824-9.022-54.061-2.119-67.976,2.477-5,12.209-5.447,22.882-5.009,3.323,2.145,15.974,10.245,21.175,9.233.055-.01.156-.035.292-.071,2.447-.614,3.373-2.331,1.329-3.816a108.09,108.09,0,0,1,11.252,1.566c3.71.7,13.89,6.948,13.89,6.948s-4.617,7.184-12.043,10.321c1.264,11.3-.614,16.281-12.334,42.37-9.9,22.056,1.334,41.912,1.334,41.912s-58.294,46.866-58.617,23C1791.246,1630.615,1807.155,1603.923,1804.446,1590.088Z" transform="translate(-1791.484 -1516.974)" fill="#ef7a65"/>
        </g>
        <g id="Grupo_109" data-name="Grupo 109" transform="translate(26.543 96.894)">
          <path id="Caminho_57" data-name="Caminho 57" d="M1878.4,1707.447a10.838,10.838,0,0,0,7.8-4.747c.282-.423.584-.876.9-1.359,6.635-10.044,9.218-40.8,24.14-73.579,3.635-7.98,16.684-9.414,20.244-18.431,0,0,8.76-29.235-16.765-30.1s-68.348,81.337-69.023,89.961C1845.039,1677.552,1828.822,1713.04,1878.4,1707.447Z" transform="translate(-1842.644 -1579.227)" fill="#94b0ed"/>
        </g>
        <g id="Grupo_110" data-name="Grupo 110" transform="translate(127.021 205.605)">
          <path id="Caminho_58" data-name="Caminho 58" d="M2078.934,1814.5H2042.61s-1.359-5.946,1.027-9.994c2.109-3.579,1.3-5.624-.262-8.584a13.848,13.848,0,0,0,6.117,1.183,12.612,12.612,0,0,0,5.4-1.948c1.566,1.828,8.257,9.621,10.351,11.161C2067.621,1808.068,2078.2,1807.444,2078.934,1814.5Z" transform="translate(-2042.224 -1795.16)" fill="#0d2644"/>
        </g>
        <g id="Grupo_111" data-name="Grupo 111" transform="translate(84.739 95.745)">
          <path id="Caminho_59" data-name="Caminho 59" d="M1989.71,1586.553c2.185,16.4,10.728,68.152,25.8,93.405,4.858,8.141-12.239,12.7-12.329,12.682-2.291-.6-6.112-4.254-7.874-5.84-12.234-11.026-37.064-42.24-37.064-67.266,0-12.2-.212-35.508,8.659-41.434C1972.361,1574.45,1988.844,1580.043,1989.71,1586.553Z" transform="translate(-1958.239 -1576.945)" fill="#94b0ed"/>
        </g>
        <g id="Grupo_112" data-name="Grupo 112" transform="translate(15.178 83.735)">
          <path id="Caminho_60" data-name="Caminho 60" d="M1820.07,1560.335s7.37,15,41.781,25.59,14.726-16.025,14.726-16.025l-48.1-16.81Z" transform="translate(-1820.07 -1553.09)" fill="#a75547"/>
        </g>
        <g id="Grupo_113" data-name="Grupo 113" transform="translate(0 95.031)">
          <path id="Caminho_61" data-name="Caminho 61" d="M1834.482,1705.65a26.7,26.7,0,0,0,3.011-6.862c1.953-6.852,2.648-11.841,6.4-22.514,3.942-11.207,8.614-24.991,14.454-39.334,1.8-4.425,3.716-8.906,5.755-13.382,3.635-7.98,13.639-6.877,17.193-15.894,0,0,13.885-31.264-11.64-32.13s-74.017,83.643-76.8,91.824C1789.8,1676.319,1778.835,1714.234,1834.482,1705.65Z" transform="translate(-1789.922 -1575.527)" fill="#aec3ff"/>
        </g>
        <g id="Grupo_114" data-name="Grupo 114" transform="translate(100.358 205.605)">
          <path id="Caminho_62" data-name="Caminho 62" d="M2025.974,1814.5H1989.65s-1.359-5.946,1.027-9.994c2.11-3.579,1.3-5.624-.262-8.584a13.849,13.849,0,0,0,6.117,1.183,12.614,12.614,0,0,0,5.4-1.948c1.566,1.828,8.257,9.621,10.351,11.161C2014.656,1808.068,2025.244,1807.444,2025.974,1814.5Z" transform="translate(-1989.264 -1795.16)" fill="#163560"/>
        </g>
        <g id="Grupo_115" data-name="Grupo 115" transform="translate(50.676 132.243)" opacity="0.5">
          <path id="Caminho_63" data-name="Caminho 63" d="M1893.872,1712.98c3.942-11.207,8.614-24.991,14.454-39.334-1.525-10.865-4.818-20.375-10.351-24.206C1897.976,1649.44,1884.554,1691.025,1893.872,1712.98Z" transform="translate(-1890.58 -1649.44)" fill="#94b0ed"/>
        </g>
        <g id="Grupo_116" data-name="Grupo 116" transform="translate(58.072 96.397)">
          <path id="Caminho_64" data-name="Caminho 64" d="M1942.2,1586.038c2.185,16.4,5.266,69.315,20.334,94.568,4.858,8.141-12.239,12.7-12.329,12.682-2.291-.6-6.112-4.254-7.874-5.84-12.234-11.026-37.064-42.239-37.064-67.266,0-12.2,14.323-34.532,23.194-40.452A8.916,8.916,0,0,1,1942.2,1586.038Z" transform="translate(-1905.27 -1578.24)" fill="#aec3ff"/>
        </g>
        <g id="Grupo_121" data-name="Grupo 121" transform="translate(120.471 49.311)">
          <g id="Grupo_117" data-name="Grupo 117">
            <path id="Caminho_65" data-name="Caminho 65" d="M2082.381,1488.679l-37.2-3.952a2.4,2.4,0,0,0-2.5,1.536l-13.311,34.974a2.4,2.4,0,0,0,2.15,3.252l36.913,1.49a2.4,2.4,0,0,0,2.311-1.47l13.6-32.513A2.409,2.409,0,0,0,2082.381,1488.679Z" transform="translate(-2029.214 -1484.713)" fill="#a75547"/>
          </g>
          <g id="Grupo_118" data-name="Grupo 118" transform="translate(3.227 0.342)">
            <path id="Caminho_66" data-name="Caminho 66" d="M2088.791,1489.359l-37.2-3.952a2.4,2.4,0,0,0-2.5,1.535l-13.311,34.975a2.4,2.4,0,0,0,2.15,3.252l36.913,1.49a2.4,2.4,0,0,0,2.311-1.475l13.6-32.513A2.4,2.4,0,0,0,2088.791,1489.359Z" transform="translate(-2035.624 -1485.393)" fill="#ef7a65"/>
          </g>
          <g id="Grupo_119" data-name="Grupo 119" transform="translate(31.112 18.374)">
            <path id="Caminho_67" data-name="Caminho 67" d="M2095.678,1523.471a1.531,1.531,0,0,0-1.44-2.261,3.571,3.571,0,0,0-3.081,2.261,1.531,1.531,0,0,0,1.44,2.26A3.571,3.571,0,0,0,2095.678,1523.471Z" transform="translate(-2091.012 -1521.21)" fill="#ebf3fa"/>
          </g>
          <g id="Grupo_120" data-name="Grupo 120" transform="translate(52.991 6.498)">
            <path id="Caminho_68" data-name="Caminho 68" d="M2136.76,1498.733a.752.752,0,0,0-.7-1.113,1.756,1.756,0,0,0-1.515,1.113.754.754,0,0,0,.705,1.113A1.761,1.761,0,0,0,2136.76,1498.733Z" transform="translate(-2134.47 -1497.62)" fill="#ebf3fa"/>
          </g>
        </g>
        <g id="Grupo_122" data-name="Grupo 122" transform="translate(11.632 70.696)">
          <path id="Caminho_69" data-name="Caminho 69" d="M1821.824,1527.19s51.558,18.985,59.3,18.6c5.009-.252,46.625-14.882,46.625-14.882l3.735,7.068s-40.507,26.033-51.644,25.908c-21.986-.252-59.085-13.749-63.269-16.4S1809.656,1529.873,1821.824,1527.19Z" transform="translate(-1813.027 -1527.19)" fill="#ffb27d"/>
        </g>
        <g id="Grupo_123" data-name="Grupo 123" transform="translate(126.355 68.483)">
          <path id="Caminho_70" data-name="Caminho 70" d="M2040.9,1528.723s3.735-5.75,7.456-5.921,10.145,2.537,12.344,2.96,8.453,2.452,6.6,5.5-10.487,3.72-14.2,3.046-8.453,1.49-8.453,1.49Z" transform="translate(-2040.9 -1522.794)" fill="#ffb27d"/>
        </g>
        <g id="Grupo_124" data-name="Grupo 124" transform="translate(132.799 65.257)">
          <path id="Caminho_71" data-name="Caminho 71" d="M2053.7,1519.8s5.915-2.714,7.607-3.222,1.354.01.846,1.611-3.55,3.131-3.55,3.635S2053.7,1519.8,2053.7,1519.8Z" transform="translate(-2053.7 -1516.387)" fill="#ffb27d"/>
        </g>
        <g id="Grupo_125" data-name="Grupo 125" transform="translate(166.555 65.558)">
          <path id="Caminho_72" data-name="Caminho 72" d="M2127.23,1522.792s-2.361-7.778-4.954-5.332c-2.7,2.542-1.062,5.085-.73,8.327.629,6.2,1.883,5.931,2.678,5.654S2128.111,1525.908,2127.23,1522.792Z" transform="translate(-2120.751 -1516.984)" fill="#ffb27d"/>
        </g>
        <g id="Grupo_126" data-name="Grupo 126" transform="translate(168.08 72.548)">
          <path id="Caminho_73" data-name="Caminho 73" d="M2128.875,1530.87a9.874,9.874,0,0,1-5.095,10.074l1.863-4.556Z" transform="translate(-2123.78 -1530.87)" fill="#ffb27d"/>
        </g>
        <g id="Grupo_127" data-name="Grupo 127" transform="translate(56.959 47.567)">
          <path id="Caminho_74" data-name="Caminho 74" d="M1911.513,1481.779s-2.215-.876-8.453-.373c0,0,.332,2.432,4.929,2.673A3.661,3.661,0,0,0,1911.513,1481.779Z" transform="translate(-1903.06 -1481.25)" fill="#fff"/>
        </g>
        <g id="Grupo_128" data-name="Grupo 128" transform="translate(9.782 69.494)">
          <path id="Caminho_75" data-name="Caminho 75" d="M1846.561,1535.364s-4.612,14.595-20.445,17.918c0,0-26.149-8.055-13.13-25.872C1812.981,1527.41,1825.854,1517.844,1846.561,1535.364Z" transform="translate(-1809.352 -1524.803)" fill="#ef7a65"/>
        </g>
        <g id="Grupo_129" data-name="Grupo 129" transform="translate(172.541 68.501)">
          <path id="Caminho_76" data-name="Caminho 76" d="M2133.274,1527.814s1.087-3.645,1.148-4.274-.015-.946-.574-.5a3.066,3.066,0,0,0-1.163,2.714A21.457,21.457,0,0,0,2133.274,1527.814Z" transform="translate(-2132.64 -1522.83)" fill="#ffb27d"/>
        </g>
      </g>
      <g id="Grupo_197" data-name="Grupo 197" transform="translate(458.497 314.382)">
        <g id="Grupo_134" data-name="Grupo 134" transform="translate(75.835 437.812)">
          <g id="Grupo_131" data-name="Grupo 131">
            <g id="Grupo_130" data-name="Grupo 130">
              <path id="Caminho_77" data-name="Caminho 77" d="M1564.325,1677.573a47.5,47.5,0,0,0-1.113-7.4,29.06,29.06,0,0,0-3.4-8.035,30.142,30.142,0,0,0-36.193-12.8,28.226,28.226,0,0,0-7.6,4.1,27.424,27.424,0,0,0-6.349,6.384,29.915,29.915,0,0,0,0,35.513,34.491,34.491,0,0,0,2.94,3.484,33.638,33.638,0,0,0,3.408,2.9,28.236,28.236,0,0,0,7.6,4.1,30.228,30.228,0,0,0,36.193-12.808,29.277,29.277,0,0,0,3.4-8.035,47.689,47.689,0,0,0,1.113-7.4,2.171,2.171,0,0,1,.02.493c-.01.373-.02.856-.03,1.455a14.04,14.04,0,0,1-.2,2.356,21.822,21.822,0,0,1-.579,3.177,28.823,28.823,0,0,1-3.308,8.2,30.725,30.725,0,0,1-20.677,14.6,30.838,30.838,0,0,1-16.2-1.289,28.908,28.908,0,0,1-7.824-4.184,28.15,28.15,0,0,1-6.54-6.545,30.676,30.676,0,0,1,0-36.505,28.148,28.148,0,0,1,6.54-6.545,29.157,29.157,0,0,1,7.819-4.184,30.839,30.839,0,0,1,16.2-1.289,30.7,30.7,0,0,1,20.677,14.59,28.815,28.815,0,0,1,3.308,8.2,21.893,21.893,0,0,1,.584,3.177,14.038,14.038,0,0,1,.2,2.356c.015.6.025,1.077.03,1.455A2.144,2.144,0,0,1,1564.325,1677.573Z" transform="translate(-1502.97 -1646.785)" fill="#ff7e66"/>
            </g>
          </g>
          <g id="Grupo_133" data-name="Grupo 133" transform="translate(15.068 18.132)">
            <g id="Grupo_132" data-name="Grupo 132">
              <path id="Caminho_78" data-name="Caminho 78" d="M1547.581,1708.108l-14.681-12.632,4.405-5.125,9.848,8.473,15.481-16.025,4.863,4.7Z" transform="translate(-1532.9 -1682.8)" fill="#ff7e66"/>
            </g>
          </g>
        </g>
        <g id="Grupo_137" data-name="Grupo 137" transform="translate(0 358.869)">
          <g id="Grupo_135" data-name="Grupo 135">
            <path id="Caminho_79" data-name="Caminho 79" d="M1539.648,1542.258H1378.479a26.139,26.139,0,0,1-26.139-26.139h0a26.139,26.139,0,0,1,26.139-26.139h161.169a26.142,26.142,0,0,1,26.139,26.139h0A26.136,26.136,0,0,1,1539.648,1542.258Z" transform="translate(-1352.34 -1489.98)" fill="#ff7e66"/>
          </g>
          <g id="Grupo_136" data-name="Grupo 136" transform="translate(65.192 18.985)">
            <path id="Caminho_80" data-name="Caminho 80" d="M1481.83,1527.69h2.542v12.279h-2.542Z" transform="translate(-1481.83 -1527.69)" fill="#fff"/>
            <path id="Caminho_81" data-name="Caminho 81" d="M1502.059,1539.974l-.015-7.365-3.237,6.072h-1.148l-3.222-5.91v7.209h-2.386V1527.7h2.1l4.113,7.627,4.053-7.627h2.089l.03,12.279h-2.381Z" transform="translate(-1486.905 -1527.695)" fill="#fff"/>
            <path id="Caminho_82" data-name="Caminho 82" d="M1531.838,1539.974l-.015-7.365-3.237,6.072h-1.148l-3.222-5.91v7.209h-2.386V1527.7h2.1l4.113,7.627,4.053-7.627h2.089l.03,12.279h-2.381Z" transform="translate(-1501.692 -1527.695)" fill="#fff"/>
            <path id="Caminho_83" data-name="Caminho 83" d="M1551.42,1534.567v-6.877h2.542v6.771c0,2.336.911,3.3,2.452,3.3s2.452-.967,2.452-3.3v-6.771h2.512v6.877c0,3.615-1.853,5.614-4.979,5.614S1551.42,1538.177,1551.42,1534.567Z" transform="translate(-1516.385 -1527.69)" fill="#fff"/>
            <path id="Caminho_84" data-name="Caminho 84" d="M1586.264,1527.69v12.279h-2.089l-5.483-7.456v7.456h-2.512V1527.69h2.1l5.467,7.456v-7.456Z" transform="translate(-1528.679 -1527.69)" fill="#fff"/>
            <path id="Caminho_85" data-name="Caminho 85" d="M1601.38,1527.69h2.542v12.279h-2.542Z" transform="translate(-1541.193 -1527.69)" fill="#fff"/>
            <path id="Caminho_86" data-name="Caminho 86" d="M1612.659,1530.006h-3.519v-2.316h9.581v2.316H1615.2v9.963h-2.542Z" transform="translate(-1545.046 -1527.69)" fill="#fff"/>
            <path id="Caminho_87" data-name="Caminho 87" d="M1634.242,1535.619v4.35H1631.7v-4.385l-4.259-7.894h2.7l2.935,5.452,2.935-5.452h2.5Z" transform="translate(-1554.133 -1527.69)" fill="#fff"/>
          </g>
        </g>
        <g id="Grupo_187" data-name="Grupo 187" transform="translate(3.474 119.809)">
          <g id="Grupo_178" data-name="Grupo 178" transform="translate(17.032 14.763)">
            <g id="Grupo_138" data-name="Grupo 138" transform="translate(0.116 101.4)">
              <path id="Caminho_88" data-name="Caminho 88" d="M1393.3,1255.088v9.218h9.218V1245.87H1393.3Z" transform="translate(-1393.3 -1245.87)" fill="#1e2e34"/>
            </g>
            <g id="Grupo_139" data-name="Grupo 139" transform="translate(0.116 55.309)">
              <rect id="Retângulo_107" data-name="Retângulo 107" width="9.218" height="9.218" fill="#1e2e34"/>
            </g>
            <g id="Grupo_140" data-name="Grupo 140" transform="translate(57.076 156.799)">
              <rect id="Retângulo_108" data-name="Retângulo 108" width="9.218" height="9.218" fill="#1e2e34"/>
            </g>
            <g id="Grupo_141" data-name="Grupo 141" transform="translate(0.116 64.527)">
              <path id="Caminho_89" data-name="Caminho 89" d="M1402.518,1181.848v9.218H1393.3v9.218h9.218v9.218h18.436v9.218h9.218V1209.5h9.218v-18.436h-9.218v9.218h-18.436V1172.63h-9.218Z" transform="translate(-1393.3 -1172.63)" fill="#1e2e34"/>
            </g>
            <g id="Grupo_142" data-name="Grupo 142" transform="translate(18.552 55.309)">
              <path id="Caminho_90" data-name="Caminho 90" d="M1439.138,1154.32h-9.218v9.218h18.436v-9.218Z" transform="translate(-1429.92 -1154.32)" fill="#1e2e34"/>
            </g>
            <g id="Grupo_143" data-name="Grupo 143" transform="translate(64.296 120.194)">
              <path id="Caminho_91" data-name="Caminho 91" d="M1525.734,1292.418h4.954V1283.2h-9.908v9.218Z" transform="translate(-1520.78 -1283.2)" fill="#1e2e34"/>
            </g>
            <g id="Grupo_144" data-name="Grupo 144" transform="translate(36.988 64.527)">
              <rect id="Retângulo_109" data-name="Retângulo 109" width="9.218" height="9.218" fill="#1e2e34"/>
            </g>
            <g id="Grupo_145" data-name="Grupo 145" transform="translate(101.511 101.4)">
              <rect id="Retângulo_110" data-name="Retângulo 110" width="9.218" height="9.218" fill="#1e2e34"/>
            </g>
            <g id="Grupo_146" data-name="Grupo 146" transform="translate(110.729 0.005)">
              <rect id="Retângulo_111" data-name="Retângulo 111" width="9.218" height="9.218" fill="#1e2e34"/>
            </g>
            <g id="Grupo_147" data-name="Grupo 147" transform="translate(46.207 46.091)">
              <path id="Caminho_92" data-name="Caminho 92" d="M1503.286,1163.664v-9.218h9.218v-9.218h-9.218v-9.218h-9.218v9.218h-9.218v9.218h9.218v36.873h9.218v-18.436h9.218v-9.218Z" transform="translate(-1484.85 -1136.01)" fill="#1e2e34"/>
            </g>
            <g id="Grupo_148" data-name="Grupo 148" transform="translate(101.511 156.709)">
              <path id="Caminho_93" data-name="Caminho 93" d="M1603.918,1364.948h9.218v-9.218H1594.7v9.218Z" transform="translate(-1594.7 -1355.73)" fill="#1e2e34"/>
            </g>
            <g id="Grupo_149" data-name="Grupo 149" transform="translate(92.292 0.005)">
              <rect id="Retângulo_112" data-name="Retângulo 112" width="9.218" height="9.218" fill="#1e2e34"/>
            </g>
            <g id="Grupo_150" data-name="Grupo 150" transform="translate(71.555 55.309)">
              <path id="Caminho_94" data-name="Caminho 94" d="M1562.854,1172.756v-9.218h-9.218v-9.218h-9.218v18.436H1535.2v9.218h18.436v-9.218Z" transform="translate(-1535.2 -1154.32)" fill="#1e2e34"/>
            </g>
            <g id="Grupo_151" data-name="Grupo 151" transform="translate(142.018 55.309)">
              <rect id="Retângulo_113" data-name="Retângulo 113" width="9.218" height="9.218" fill="#1e2e34"/>
            </g>
            <g id="Grupo_152" data-name="Grupo 152" transform="translate(46.468 101.4)">
              <rect id="Retângulo_114" data-name="Retângulo 114" width="9.218" height="9.218" fill="#1e2e34"/>
            </g>
            <g id="Grupo_153" data-name="Grupo 153" transform="translate(73.861 9.223)">
              <path id="Caminho_95" data-name="Caminho 95" d="M1558.211,1099.648v-9.218h9.218v-9.218h18.436v-9.218h-9.218v-9.213h-9.218v9.213h-9.218v9.218h-9.218v9.218h-9.213v9.218h18.431Z" transform="translate(-1539.78 -1062.78)" fill="#1e2e34"/>
            </g>
            <g id="Grupo_154" data-name="Grupo 154" transform="translate(73.861 92.182)">
              <path id="Caminho_96" data-name="Caminho 96" d="M1558.211,1246v-9.218h9.218v-9.218h-18.436v9.218h-9.213V1246h18.431Z" transform="translate(-1539.78 -1227.56)" fill="#1e2e34"/>
            </g>
            <g id="Grupo_155" data-name="Grupo 155" transform="translate(64.643 129.049)">
              <path id="Caminho_97" data-name="Caminho 97" d="M1576.774,1319.226v-9.218h-18.436v-9.218h-9.218v9.218H1539.9v9.218H1521.47v9.218h27.649v-9.218h9.218v9.218h9.218v-9.218Z" transform="translate(-1521.47 -1300.79)" fill="#1e2e34"/>
            </g>
            <g id="Grupo_156" data-name="Grupo 156" transform="translate(55.425 0.005)">
              <path id="Caminho_98" data-name="Caminho 98" d="M1530.809,1053.688v-9.218h-18.431v9.218h-9.218v9.213H1521.6v-9.213Z" transform="translate(-1503.16 -1044.47)" fill="#1e2e34"/>
            </g>
            <g id="Grupo_157" data-name="Grupo 157" transform="translate(73.861 18.436)">
              <rect id="Retângulo_115" data-name="Retângulo 115" width="9.218" height="9.218" fill="#1e2e34"/>
            </g>
            <g id="Grupo_158" data-name="Grupo 158" transform="translate(96.904 36.873)">
              <path id="Caminho_99" data-name="Caminho 99" d="M1594.768,1136.136h-9.218v27.654h18.436v-9.218h-9.218v-9.218h9.218v-9.218h9.218v-9.218h-9.218V1117.7h-9.218v18.436Z" transform="translate(-1585.55 -1117.7)" fill="#1e2e34"/>
            </g>
            <g id="Grupo_159" data-name="Grupo 159" transform="translate(64.643 27.655)">
              <rect id="Retângulo_116" data-name="Retângulo 116" width="9.218" height="9.218" fill="#1e2e34"/>
            </g>
            <g id="Grupo_160" data-name="Grupo 160" transform="translate(101.511 110.618)">
              <path id="Caminho_100" data-name="Caminho 100" d="M1594.7,1273.4v9.218h18.436V1273.4h18.436v-9.218h-27.655v9.218Z" transform="translate(-1594.7 -1264.18)" fill="#1e2e34"/>
            </g>
            <g id="Grupo_161" data-name="Grupo 161" transform="translate(142.018 82.963)">
              <rect id="Retângulo_117" data-name="Retângulo 117" width="9.218" height="9.218" fill="#1e2e34"/>
            </g>
            <g id="Grupo_162" data-name="Grupo 162" transform="translate(110.729 92.182)">
              <rect id="Retângulo_118" data-name="Retângulo 118" width="9.218" height="9.218" fill="#1e2e34"/>
            </g>
            <g id="Grupo_163" data-name="Grupo 163" transform="translate(124.558 64.527)">
              <path id="Caminho_101" data-name="Caminho 101" d="M1658.916,1172.63H1640.48v9.218h9.218v9.218h9.218V1172.63Z" transform="translate(-1640.48 -1172.63)" fill="#1e2e34"/>
            </g>
            <g id="Grupo_164" data-name="Grupo 164" transform="translate(129.165 92.182)">
              <rect id="Retângulo_119" data-name="Retângulo 119" width="9.218" height="9.218" fill="#1e2e34"/>
            </g>
            <g id="Grupo_165" data-name="Grupo 165" transform="translate(18.552 110.608)">
              <path id="Caminho_102" data-name="Caminho 102" d="M1448.356,1301.214h27.665V1264.16h-37.054v9.228h-9.047v9.218h9.047v9.218h-9.047v9.218h9.047v.171h.171v9.047h-9.218V1328.7h9.218v-9.218h9.218v-18.265Zm20.566-29.96V1294.3h-23.043v-23.043Z" transform="translate(-1429.92 -1264.16)" fill="#1e2e34"/>
            </g>
            <g id="Grupo_166" data-name="Grupo 166" transform="translate(138.383 101.4)">
              <path id="Caminho_103" data-name="Caminho 103" d="M1686.376,1255.088h9.218v-9.218H1667.94v9.218h18.436Z" transform="translate(-1667.94 -1245.87)" fill="#1e2e34"/>
            </g>
            <g id="Grupo_167" data-name="Grupo 167" transform="translate(156.82 55.309)">
              <path id="Caminho_104" data-name="Caminho 104" d="M1704.56,1172.756h9.218V1154.32h-9.218v18.436Z" transform="translate(-1704.56 -1154.32)" fill="#1e2e34"/>
            </g>
            <g id="Grupo_168" data-name="Grupo 168" transform="translate(74.203 120.194)">
              <path id="Caminho_105" data-name="Caminho 105" d="M1549.678,1283.2h-9.218v18.436h9.218V1283.2Z" transform="translate(-1540.46 -1283.2)" fill="#1e2e34"/>
            </g>
            <g id="Grupo_169" data-name="Grupo 169" transform="translate(166.038 110.618)">
              <rect id="Retângulo_120" data-name="Retângulo 120" width="9.218" height="9.218" fill="#1e2e34"/>
            </g>
            <g id="Grupo_170" data-name="Grupo 170" transform="translate(166.038 82.963)">
              <path id="Caminho_106" data-name="Caminho 106" d="M1732.088,1218.468v-9.218h-9.218v18.436h9.218Z" transform="translate(-1722.87 -1209.25)" fill="#1e2e34"/>
            </g>
            <g id="Grupo_171" data-name="Grupo 171" transform="translate(0.116 156.709)">
              <path id="Caminho_107" data-name="Caminho 107" d="M1402.518,1355.73H1393.3v18.431h9.218V1355.73Z" transform="translate(-1393.3 -1355.73)" fill="#1e2e34"/>
            </g>
            <g id="Grupo_172" data-name="Grupo 172" transform="translate(129.165)">
              <path id="Caminho_108" data-name="Caminho 108" d="M1695.721,1090.551V1044.46H1649.63v46.091Zm-39.179-6.912v-32.261H1688.8v32.261Z" transform="translate(-1649.63 -1044.46)" fill="#1e2e34"/>
            </g>
            <g id="Grupo_173" data-name="Grupo 173" transform="translate(142.995 13.83)">
              <rect id="Retângulo_121" data-name="Retângulo 121" width="18.436" height="18.436" fill="#1e2e34"/>
            </g>
            <g id="Grupo_174" data-name="Grupo 174" transform="translate(129.165 129.054)">
              <path id="Caminho_109" data-name="Caminho 109" d="M1695.721,1300.8H1649.63v46.091h46.091Zm-39.179,39.173v-32.261H1688.8v32.261Z" transform="translate(-1649.63 -1300.8)" fill="#1e2e34"/>
            </g>
            <g id="Grupo_175" data-name="Grupo 175" transform="translate(142.995 142.879)">
              <rect id="Retângulo_122" data-name="Retângulo 122" width="18.436" height="18.436" fill="#1e2e34"/>
            </g>
            <g id="Grupo_176" data-name="Grupo 176" transform="translate(0 0.005)">
              <path id="Caminho_110" data-name="Caminho 110" d="M1393.07,1044.47v46.091h46.091V1044.47Zm39.178,6.912v32.261h-32.261v-32.261Z" transform="translate(-1393.07 -1044.47)" fill="#1e2e34"/>
            </g>
            <g id="Grupo_177" data-name="Grupo 177" transform="translate(13.83 13.83)">
              <rect id="Retângulo_123" data-name="Retângulo 123" width="18.436" height="18.436" fill="#1e2e34"/>
            </g>
          </g>
          <g id="Grupo_180" data-name="Grupo 180" transform="translate(1.785 0.043)">
            <g id="Grupo_179" data-name="Grupo 179">
              <path id="Caminho_111" data-name="Caminho 111" d="M1364.887,1062.076v-32.734c0-3.051.514-5.941,2.593-8.342a11.348,11.348,0,0,1,8.971-3.72h34.421a1.03,1.03,0,0,0,0-2.059h-34.043a14.419,14.419,0,0,0-8.206,2.074,12.993,12.993,0,0,0-5.795,10.749c-.1,5.387,0,10.784,0,16.171v17.862a1.03,1.03,0,0,0,2.059,0Z" transform="translate(-1362.785 -1015.22)" fill="#ff7e66"/>
            </g>
          </g>
          <g id="Grupo_182" data-name="Grupo 182" transform="translate(0 158.485)">
            <g id="Grupo_181" data-name="Grupo 181">
              <path id="Caminho_112" data-name="Caminho 112" d="M1406.1,1376.919h-32.734c-3.051,0-5.941-.514-8.342-2.6a11.349,11.349,0,0,1-3.721-8.972v-34.421a1.03,1.03,0,0,0-2.059,0v34.043a14.418,14.418,0,0,0,2.074,8.206,12.993,12.993,0,0,0,10.749,5.795c5.387.1,10.784,0,16.171,0H1406.1a1.027,1.027,0,0,0,0-2.054Z" transform="translate(-1359.24 -1329.934)" fill="#ff7e66"/>
            </g>
          </g>
          <g id="Grupo_184" data-name="Grupo 184" transform="translate(157.461 158.165)">
            <g id="Grupo_183" data-name="Grupo 183">
              <path id="Caminho_113" data-name="Caminho 113" d="M1718.984,1330.291v32.734c0,3.051-.514,5.941-2.593,8.342a11.348,11.348,0,0,1-8.971,3.72H1673a1.03,1.03,0,0,0,0,2.059h34.043a14.419,14.419,0,0,0,8.206-2.074,12.993,12.993,0,0,0,5.795-10.749c.1-5.387,0-10.784,0-16.171v-17.862a1.03,1.03,0,0,0-2.059,0Z" transform="translate(-1672.004 -1329.298)" fill="#ff7e66"/>
            </g>
          </g>
          <g id="Grupo_186" data-name="Grupo 186" transform="translate(158.057)">
            <g id="Grupo_185" data-name="Grupo 185">
              <path id="Caminho_114" data-name="Caminho 114" d="M1674.181,1017.237h32.734c3.051,0,5.941.513,8.342,2.593a11.348,11.348,0,0,1,3.72,8.971v34.421a1.03,1.03,0,0,0,2.059,0v-34.043a14.419,14.419,0,0,0-2.074-8.206,12.993,12.993,0,0,0-10.749-5.795c-5.387-.1-10.784,0-16.171,0h-17.862a1.03,1.03,0,0,0,0,2.059Z" transform="translate(-1673.188 -1015.135)" fill="#ff7e66"/>
            </g>
          </g>
        </g>
        <g id="Grupo_189" data-name="Grupo 189" transform="translate(31.159 37.386)">
          <path id="Caminho_115" data-name="Caminho 115" d="M1423.433,851.6v11.01h-1.148v-5.08h-6.892v5.08h-1.163V851.6h1.163v4.909h6.892V851.6Z" transform="translate(-1414.23 -851.509)" fill="#1e2e34"/>
          <path id="Caminho_116" data-name="Caminho 116" d="M1447.418,861.6v1.007h-7.788V851.6h7.552v1.007h-6.389v3.917h5.694v.992h-5.694V861.6Z" transform="translate(-1426.842 -851.509)" fill="#1e2e34"/>
          <path id="Caminho_117" data-name="Caminho 117" d="M1465.694,859.67h-6.137l-1.324,2.94h-1.214l5.035-11.01h1.148l5.035,11.01h-1.229Zm-.423-.947-2.643-5.915-2.643,5.915Z" transform="translate(-1435.477 -851.509)" fill="#1e2e34"/>
          <path id="Caminho_118" data-name="Caminho 118" d="M1482.94,851.6h1.163v10h6.167v1.007h-7.33Z" transform="translate(-1448.348 -851.509)" fill="#1e2e34"/>
          <path id="Caminho_119" data-name="Caminho 119" d="M1499.742,852.607h-3.871V851.6h8.906v1.007H1500.9v10h-1.163Z" transform="translate(-1454.768 -851.509)" fill="#1e2e34"/>
          <path id="Caminho_120" data-name="Caminho 120" d="M1526.443,851.6v11.01H1525.3v-5.08H1518.4v5.08h-1.163V851.6h1.163v4.909h6.892V851.6Z" transform="translate(-1465.38 -851.509)" fill="#1e2e34"/>
          <path id="Caminho_121" data-name="Caminho 121" d="M1559.459,855.376c0,2.346-1.7,3.761-4.5,3.761H1552v3.479h-1.163V851.6h4.123C1557.757,851.6,1559.459,853.015,1559.459,855.376Zm-1.168,0c0-1.762-1.163-2.769-3.368-2.769H1552v5.508h2.925C1557.128,858.115,1558.291,857.108,1558.291,855.376Z" transform="translate(-1482.064 -851.509)" fill="#1e2e34"/>
          <path id="Caminho_122" data-name="Caminho 122" d="M1577.024,859.67h-6.137l-1.324,2.94h-1.213l5.034-11.01h1.148l5.035,11.01h-1.228Zm-.428-.947-2.643-5.915-2.643,5.915Z" transform="translate(-1490.758 -851.509)" fill="#1e2e34"/>
          <path id="Caminho_123" data-name="Caminho 123" d="M1592.17,861.192l.453-.9a5.406,5.406,0,0,0,3.635,1.339c2.059,0,2.955-.866,2.955-1.948,0-3.021-6.781-1.163-6.781-5.236,0-1.621,1.259-3.021,4.058-3.021a6.209,6.209,0,0,1,3.413.977l-.393.926a5.665,5.665,0,0,0-3.021-.911c-2.014,0-2.91.9-2.91,2,0,3.021,6.781,1.193,6.781,5.206,0,1.621-1.289,3.005-4.108,3.005A6.027,6.027,0,0,1,1592.17,861.192Z" transform="translate(-1502.586 -851.425)" fill="#1e2e34"/>
          <path id="Caminho_124" data-name="Caminho 124" d="M1611.39,861.192l.453-.9a5.406,5.406,0,0,0,3.635,1.339c2.059,0,2.955-.866,2.955-1.948,0-3.021-6.781-1.163-6.781-5.236,0-1.621,1.259-3.021,4.058-3.021a6.209,6.209,0,0,1,3.413.977l-.393.926a5.665,5.665,0,0,0-3.021-.911c-2.014,0-2.91.9-2.91,2,0,3.021,6.781,1.193,6.781,5.206,0,1.621-1.289,3.005-4.108,3.005A6.027,6.027,0,0,1,1611.39,861.192Z" transform="translate(-1512.13 -851.425)" fill="#1e2e34"/>
          <path id="Caminho_125" data-name="Caminho 125" d="M1641.324,855.376c0,2.346-1.7,3.761-4.5,3.761h-2.955v3.479h-1.163V851.6h4.123C1639.622,851.6,1641.324,853.015,1641.324,855.376Zm-1.163,0c0-1.762-1.163-2.769-3.368-2.769h-2.925v5.508h2.925C1639,858.115,1640.161,857.108,1640.161,855.376Z" transform="translate(-1522.716 -851.509)" fill="#1e2e34"/>
          <path id="Caminho_126" data-name="Caminho 126" d="M1653.19,857.018a5.785,5.785,0,1,1,5.79,5.6A5.541,5.541,0,0,1,1653.19,857.018Zm10.4,0a4.627,4.627,0,1,0-4.612,4.561A4.461,4.461,0,0,0,1663.586,857.018Z" transform="translate(-1532.886 -851.42)" fill="#1e2e34"/>
          <path id="Caminho_127" data-name="Caminho 127" d="M1688.866,862.61l-2.517-3.539a8.233,8.233,0,0,1-.881.045h-2.955v3.494h-1.163V851.6h4.123c2.8,0,4.5,1.415,4.5,3.776a3.408,3.408,0,0,1-2.517,3.459l2.688,3.776Zm-.065-7.235c0-1.762-1.163-2.769-3.368-2.769h-2.925v5.523h2.925C1687.638,858.13,1688.8,857.108,1688.8,855.376Z" transform="translate(-1546.868 -851.509)" fill="#1e2e34"/>
          <path id="Caminho_128" data-name="Caminho 128" d="M1704.052,852.607h-3.871V851.6h8.9v1.007h-3.872v10h-1.163v-10Z" transform="translate(-1556.219 -851.509)" fill="#1e2e34"/>
          <g id="Grupo_188" data-name="Grupo 188" transform="translate(36.404 23.723)">
            <path id="Caminho_129" data-name="Caminho 129" d="M1486.54,905.573c0-4.108,2.814-7.023,6.646-7.023a6.121,6.121,0,0,1,5.2,2.547l-2.175,2.2a3.457,3.457,0,0,0-2.849-1.581c-1.983,0-3.368,1.546-3.368,3.861s1.38,3.861,3.368,3.861a3.458,3.458,0,0,0,2.849-1.581l2.175,2.2a6.121,6.121,0,0,1-5.2,2.547C1489.354,912.6,1486.54,909.681,1486.54,905.573Z" transform="translate(-1486.54 -898.545)" fill="#ff7e66"/>
            <path id="Caminho_130" data-name="Caminho 130" d="M1511.34,905.573a6.723,6.723,0,1,1,6.716,7.023A6.673,6.673,0,0,1,1511.34,905.573Zm9.979,0c0-2.336-1.435-3.861-3.262-3.861s-3.262,1.525-3.262,3.861,1.435,3.861,3.262,3.861S1521.318,907.909,1521.318,905.573Z" transform="translate(-1498.854 -898.545)" fill="#ff7e66"/>
            <path id="Caminho_131" data-name="Caminho 131" d="M1551.6,899.08l-5.181,13.508h-3.368l-5.16-13.508h3.7l3.282,8.8,3.348-8.8Z" transform="translate(-1512.038 -898.808)" fill="#ff7e66"/>
            <path id="Caminho_132" data-name="Caminho 132" d="M1566.53,899.08h3.418v13.508h-3.418Z" transform="translate(-1526.259 -898.808)" fill="#ff7e66"/>
            <path id="Caminho_133" data-name="Caminho 133" d="M1578.16,899.08h5.714a6.756,6.756,0,0,1,0,13.513h-5.714Zm5.578,10.462c2.054,0,3.433-1.369,3.433-3.705s-1.38-3.705-3.433-3.705h-2.16v7.411Z" transform="translate(-1532.034 -898.808)" fill="#ff7e66"/>
            <path id="Caminho_134" data-name="Caminho 134" d="M1605.81,912.19h5.045v2.819h-5.045Z" transform="translate(-1545.764 -905.318)" fill="#ff7e66"/>
            <path id="Caminho_135" data-name="Caminho 135" d="M1622.544,899.075v13.508h-3.418V902.025h-2.245V899.07h5.664Z" transform="translate(-1551.261 -898.803)" fill="#ff7e66"/>
            <path id="Caminho_136" data-name="Caminho 136" d="M1641.461,905.2c0,4.707-2.608,7.391-6.439,7.391a6.188,6.188,0,0,1-3.539-.987l1.244-2.739a3.455,3.455,0,0,0,2.225.695c1.707,0,2.85-1.083,3.036-3.127a3.8,3.8,0,0,1-2.709.982,4.08,4.08,0,0,1-4.158-4.264,4.5,4.5,0,0,1,4.732-4.612C1639.256,898.545,1641.461,900.821,1641.461,905.2Zm-3.7-2.24a1.6,1.6,0,0,0-1.692-1.7,1.708,1.708,0,0,0,.015,3.413A1.612,1.612,0,0,0,1637.766,902.96Z" transform="translate(-1558.331 -898.54)" fill="#ff7e66"/>
          </g>
        </g>
        <g id="Grupo_196" data-name="Grupo 196" transform="translate(210.95)">
          <g id="Grupo_191" data-name="Grupo 191">
            <g id="Grupo_190" data-name="Grupo 190">
              <path id="Caminho_137" data-name="Caminho 137" d="M1791.684,777.346a100.532,100.532,0,0,1-10.165.342c-5.613.045-10.17-.03-10.17-.171a201.421,201.421,0,0,1,20.334-.171Z" transform="translate(-1771.35 -777.16)" fill="#1e2e34"/>
            </g>
          </g>
          <g id="Grupo_193" data-name="Grupo 193" transform="translate(0.04 5.201)">
            <g id="Grupo_192" data-name="Grupo 192">
              <path id="Caminho_138" data-name="Caminho 138" d="M1791.764,787.676a100.529,100.529,0,0,1-10.164.342c-5.614.045-10.17-.03-10.17-.171a201.417,201.417,0,0,1,20.334-.171Z" transform="translate(-1771.43 -787.49)" fill="#1e2e34"/>
            </g>
          </g>
          <g id="Grupo_195" data-name="Grupo 195" transform="translate(0.086 10.403)">
            <g id="Grupo_194" data-name="Grupo 194">
              <path id="Caminho_139" data-name="Caminho 139" d="M1791.854,798.008a100.511,100.511,0,0,1-10.165.342c-5.614.045-10.17-.03-10.17-.171a100.5,100.5,0,0,1,10.165-.342C1787.3,797.792,1791.854,797.867,1791.854,798.008Z" transform="translate(-1771.52 -797.824)" fill="#1e2e34"/>
            </g>
          </g>
        </g>
      </g>
      <g id="Grupo_225" data-name="Grupo 225" transform="translate(415.592 73.852)">
        <g id="Grupo_224" data-name="Grupo 224">
          <g id="Grupo_218" data-name="Grupo 218">
            <g id="Grupo_198" data-name="Grupo 198" transform="translate(95.696 259.847)">
              <path id="Caminho_140" data-name="Caminho 140" d="M1458.161,849.019a3.727,3.727,0,0,0-.665,3.992.037.037,0,0,0,.01.02c.962,2.663,4.143,5.634,7.839,8.6.473.383.891.73,1.259,1.047l.282.252c.076.065.146.136.217.2,3.444,3.177,2.15,3.9,8.337,10.351,7.058,7.345,11.917,7.476,13.3,6.807,1.168-.569-1.208-4.466-3.841-8.846-.126-.211-.252-.423-.383-.639-.352-.584-.7-1.173-1.047-1.757-3.086-5.271-2.291-7.743-1.561-15.582.594-6.374,9.913-35.6,9.913-35.6l-13.528-2.331s-4.073,23.274-8.564,26.859c-2.4,1.913-5.085,1.933-7.4,3.353-.161.1-.322.2-.478.3A18.045,18.045,0,0,0,1458.161,849.019Z" transform="translate(-1457.199 -815.53)" fill="#ffc49c"/>
            </g>
            <g id="Grupo_199" data-name="Grupo 199" transform="translate(95.696 290.06)">
              <path id="Caminho_141" data-name="Caminho 141" d="M1458.161,878.818a3.727,3.727,0,0,0-.665,3.992.037.037,0,0,0,.01.02c1.178,2.658,4.279,5.613,7.854,8.574.468.388.881.745,1.244,1.077l.282.252c.076.065.146.136.217.2,3.444,3.177,2.15,3.9,8.337,10.351,7.058,7.345,11.917,7.476,13.3,6.807,1.168-.569-1.208-4.466-3.841-8.846a30.055,30.055,0,0,1-12.581-9.274c-4.249-5.422-7.083-12.395-9.978-16.428-.161.1-.322.2-.478.3A17.934,17.934,0,0,0,1458.161,878.818Z" transform="translate(-1457.199 -875.54)" fill="#233862"/>
            </g>
            <g id="Grupo_200" data-name="Grupo 200" transform="translate(194.921 255.734)">
              <path id="Caminho_142" data-name="Caminho 142" d="M1665.1,836.515c.836,4.174,6.786,3.479,13.437,1.853s5.07.307,14.535-.74,12.329-4.576,12.621-5.986c.257-1.249-4.42-1.687-9.435-2.266-.629-.071-1.264-.151-1.9-.227-5.664-.71-9.812-4.365-14.952-7.365-4.873-2.845-12.143-14.424-12.143-14.424l-12.979,1.027s6.812,10.346,9.445,14.842c1.551,2.643,1.465,6.142,1.274,8.846A16.412,16.412,0,0,0,1665.1,836.515Z" transform="translate(-1654.29 -807.36)" fill="#ffc49c"/>
            </g>
            <g id="Grupo_201" data-name="Grupo 201" transform="translate(205.541 277.75)">
              <path id="Caminho_143" data-name="Caminho 143" d="M1689.015,860.082c6.651-1.626,5.07.307,14.535-.74s12.329-4.576,12.622-5.986c.257-1.249-4.42-1.687-9.435-2.265l-.045.1a26.7,26.7,0,0,1-13.553,4.214c-6.419.156-13.22-1.682-17.656-1.611a16.613,16.613,0,0,0,.1,4.44C1676.414,862.4,1682.365,861.708,1689.015,860.082Z" transform="translate(-1675.384 -851.09)" fill="#233862"/>
            </g>
            <g id="Grupo_202" data-name="Grupo 202" transform="translate(111.464 181.089)">
              <path id="Caminho_144" data-name="Caminho 144" d="M1533.05,679.9l-12.133,32.649-15.839,42.632a25.722,25.722,0,0,1-8.417-.77,36.584,36.584,0,0,1-8.141-3.962s4.4-45.774,12.606-72.049c2.1-6.746,4.461-12.2,7.058-15.27C1520.907,648.1,1533.05,679.9,1533.05,679.9Z" transform="translate(-1488.52 -659.093)" fill="#a75547"/>
            </g>
            <g id="Grupo_203" data-name="Grupo 203" transform="translate(27.668 143.525)">
              <path id="Caminho_145" data-name="Caminho 145" d="M1438.068,591c-7.572-2.442-28.5.428-50.149,4.561a4.773,4.773,0,0,1-4.969-2.215l-3.046-5.024-49.192-3.841s-12.7,28.848-7.3,52.847c1.324,5.88,8.513,13.492,19.5,14.177,30.811,1.918,51.6-8.785,83.583-20.027,5.563-1.953,8.1,10.406,13.88,22.549s54.358,53.779,54.358,53.779,7.466.076,10.547-1.082a10.385,10.385,0,0,0,4.531-2.86S1456,596.784,1438.068,591Z" transform="translate(-1322.076 -584.48)" fill="#ff725e"/>
            </g>
            <g id="Grupo_204" data-name="Grupo 204" transform="translate(0.177)">
              <path id="Caminho_146" data-name="Caminho 146" d="M1350.857,303.526c-6.3-3.308-15.889-3.756-17.449-3.967-18.638-2.507-29.86,24.583-30.519,32.79-1.218,15.129-9.218,17.434-20.485,26.909-22.585,19-15.964,41.071-3.615,49.273,7.411,4.919,20.47,0,20.47,0,.186.131,35.72-19.866,53.235-29.512C1378.763,375.288,1366.912,311.959,1350.857,303.526Z" transform="translate(-1267.471 -299.396)" fill="#233862"/>
            </g>
            <g id="Grupo_205" data-name="Grupo 205" transform="translate(46.563 43.868)">
              <path id="Caminho_147" data-name="Caminho 147" d="M1383.573,414.074c.076.05-8.619,3.021-14.434.443-5.472-2.417-9.616-11.418-9.53-11.423,2.487-.116,5.221-2.291,7.325-16.564l1.057.378,17.817,6.409s-1.289,5.714-2.125,11.161C1382.974,409.049,1382.6,413.429,1383.573,414.074Z" transform="translate(-1359.607 -386.53)" fill="#ffb27d"/>
            </g>
            <g id="Grupo_206" data-name="Grupo 206" transform="translate(54.942 44.25)">
              <path id="Caminho_148" data-name="Caminho 148" d="M1394.067,393.7s-.891,4.058-1.878,9.606c-10.235-1.843-14.5-10.482-15.939-16.015Z" transform="translate(-1376.25 -387.29)" fill="#ed975d"/>
            </g>
            <g id="Grupo_207" data-name="Grupo 207" transform="translate(53.161 13.458)">
              <path id="Caminho_149" data-name="Caminho 149" d="M1394.964,369s-24.377-3.272-22.1-18.421.655-25.772,16.312-24.322,17.807,7.683,18.28,12.924S1401.362,369.466,1394.964,369Z" transform="translate(-1372.712 -326.127)" fill="#ffb27d"/>
            </g>
            <g id="Grupo_208" data-name="Grupo 208" transform="translate(46.172 12.119)">
              <path id="Caminho_150" data-name="Caminho 150" d="M1399.675,329.556s-15.6,13.447-26.215,14.53-14.63-2.321-14.63-2.321a41.408,41.408,0,0,0,10.019-13.578,7.456,7.456,0,0,1,6.152-4.4C1382.578,323.137,1396.941,322.84,1399.675,329.556Z" transform="translate(-1358.83 -323.468)" fill="#233862"/>
            </g>
            <g id="Grupo_209" data-name="Grupo 209" transform="translate(77.26 14.088)">
              <path id="Caminho_151" data-name="Caminho 151" d="M1420.58,330.294s5.221,5.05,6.862,8.79c1.586,3.615,2.064,12.254.8,15.682,0,0,8.131-15.813,3.529-23.5C1426.888,323.125,1420.58,330.294,1420.58,330.294Z" transform="translate(-1420.58 -327.379)" fill="#233862"/>
            </g>
            <g id="Grupo_210" data-name="Grupo 210" transform="translate(25.644 59.866)">
              <path id="Caminho_152" data-name="Caminho 152" d="M1383.461,465.759c1.868,44-1.088,41.57-5.6,43.715a28.886,28.886,0,0,1-9.767,2.12c-15.129,1-41.726-1.49-42.738-4.284-3.489-9.676-1.027-12.682-3.937-27.493-.3-1.576-.68-3.283-1.118-5.135-2.427-10.175-4.793-13.633,3.821-29.975,7.808-14.806,15.924-26.819,16.654-26.386,20.606,12.234,22.268,1.953,22.268,1.953S1382.443,441.714,1383.461,465.759Z" transform="translate(-1318.055 -418.307)" fill="#aec3ff"/>
            </g>
            <g id="Grupo_211" data-name="Grupo 211" transform="translate(111.464 200.395)">
              <path id="Caminho_153" data-name="Caminho 153" d="M1520.917,731.589l-15.839,42.632a25.723,25.723,0,0,1-8.417-.77,36.584,36.584,0,0,1-8.141-3.962s4.4-45.774,12.606-72.049Z" transform="translate(-1488.52 -697.44)" fill="#ff725e"/>
            </g>
            <g id="Grupo_212" data-name="Grupo 212" transform="translate(70.634 61.821)">
              <path id="Caminho_154" data-name="Caminho 154" d="M1407.42,422.19s21.205,3.595,23.692,12.722,17.142,62.8,17.142,62.8-10.779,1.938-15.758-3.041-17.329-46.2-17.329-46.2Z" transform="translate(-1407.42 -422.19)" fill="#aec3ff"/>
            </g>
            <g id="Grupo_213" data-name="Grupo 213" transform="translate(29.009 100.823)">
              <path id="Caminho_155" data-name="Caminho 155" d="M1371.415,551.984c-15.129,1-41.726-1.49-42.738-4.284-3.489-9.676-1.027-12.682-3.937-27.493l7.3-20.546s-1.208,22.882,5.543,28.9,27.629,11.62,30.912,16.644A18.492,18.492,0,0,1,1371.415,551.984Z" transform="translate(-1324.74 -499.66)" fill="#94b0ed"/>
            </g>
            <g id="Grupo_214" data-name="Grupo 214" transform="translate(58.35 141.215)">
              <path id="Caminho_156" data-name="Caminho 156" d="M1383.02,582.2s14.927-3.323,17.334-2,8.3,6.147,9.032,7.829-5.362-1.274-7.345-1.807c-1.284-.342-4.667.831-6.339,1.389-7.043,2.346-11.363,1.143-11.363,1.143Z" transform="translate(-1383.02 -579.891)" fill="#ffb27d"/>
            </g>
            <g id="Grupo_215" data-name="Grupo 215" transform="translate(0 59.862)">
              <path id="Caminho_157" data-name="Caminho 157" d="M1315.471,418.3s-20.042,1.233-26.98,10.91c-9.767,13.623-29.14,71.676-18.039,79.419,12.506,8.72,56.91,2.281,56.91,2.281s1.48-6.907-.579-10.25-35.468-8.74-37.009-10.28,19.277-30.071,19.277-34.7S1315.471,418.3,1315.471,418.3Z" transform="translate(-1267.119 -418.3)" fill="#aec3ff"/>
            </g>
            <g id="Grupo_216" data-name="Grupo 216" transform="translate(76.404 145.68)">
              <path id="Caminho_158" data-name="Caminho 158" d="M1418.88,588.76s3.126,4.033,4.153,4.516a3.048,3.048,0,0,0,1.687.362l-2.109-3.791Z" transform="translate(-1418.88 -588.76)" fill="#ffb27d"/>
            </g>
            <g id="Grupo_217" data-name="Grupo 217" transform="translate(75.684 141.527)">
              <path id="Caminho_159" data-name="Caminho 159" d="M1417.45,580.51l9.092,4.415a1.621,1.621,0,0,1-1.505.584,21.661,21.661,0,0,1-3.942-1.082Z" transform="translate(-1417.45 -580.51)" fill="#ffb27d"/>
            </g>
          </g>
          <g id="Grupo_223" data-name="Grupo 223" transform="translate(58.35 102.57)">
            <g id="Grupo_221" data-name="Grupo 221">
              <g id="Grupo_219" data-name="Grupo 219" transform="translate(22.207)">
                <path id="Caminho_160" data-name="Caminho 160" d="M1427.13,556.934h71.928l21.638-53.8h-71.817Z" transform="translate(-1427.13 -503.13)" fill="#2b478b"/>
              </g>
              <g id="Grupo_220" data-name="Grupo 220" transform="translate(0 51.709)">
                <path id="Caminho_161" data-name="Caminho 161" d="M1478,605.84H1383.02v2.094h94.135Z" transform="translate(-1383.02 -605.84)" fill="#2b478b"/>
              </g>
            </g>
            <g id="Grupo_222" data-name="Grupo 222" transform="translate(68.994 23.481)">
              <path id="Caminho_162" data-name="Caminho 162" d="M1527.049,553.193a2.491,2.491,0,0,0-2.442-3.423,4.914,4.914,0,0,0-4.405,3.423,2.489,2.489,0,0,0,2.442,3.423A4.9,4.9,0,0,0,1527.049,553.193Z" transform="translate(-1520.063 -549.77)" fill="#ebf3fa"/>
            </g>
          </g>
        </g>
      </g>
      <g id="Grupo_226" data-name="Grupo 226" transform="translate(0 845.586)">
        <path id="Caminho_163" data-name="Caminho 163" d="M1528.754,1835.517H442.934a1.311,1.311,0,0,1-1.3-1.3v-.619a1.311,1.311,0,0,1,1.3-1.3H1528.749a1.311,1.311,0,0,1,1.3,1.3v.619A1.3,1.3,0,0,1,1528.754,1835.517Z" transform="translate(-441.63 -1832.29)" fill="#2e3552"/>
      </g>
    </g>
  </g>
</svg>
